<svg width="52" height="49" viewBox="0 0 52 49" fill="none" xmlns="http://www.w3.org/2000/svg">
<path d="M47.1866 4.9278C41.2759 -1.01619 31.5213 -0.720709 25.8938 5.45784C20.2658 -0.72049 10.5116 -1.0163 4.60093 4.92791C-1.27668 10.7812 -1.07645 20.4199 4.97952 26.0694C1.88127 29.0284 3.65621 34.3457 7.87326 34.864C7.62065 37.7517 10.0784 40.3997 12.9856 40.3506C13.1639 43.5294 16.3544 45.8049 19.4133 44.9648C20.4168 48.752 25.241 50.0461 28.0087 47.2588C29.5805 45.6963 30.8306 44.711 30.9103 42.3446C33.5076 42.2722 35.7548 39.9944 35.7944 37.3987C38.4166 37.3582 40.7013 35.0728 40.7416 32.4513C43.4619 32.41 45.8206 29.9548 45.694 27.1831L47.1864 25.6908C52.9109 19.9664 52.9109 10.6521 47.1866 4.9278ZM7.22971 28.4587L8.63142 27.057C8.99371 26.6947 9.46941 26.5136 9.94532 26.5136C11.5771 26.5028 12.4289 28.5202 11.259 29.6845L9.85729 31.0863C8.04287 32.7567 5.5591 30.2739 7.22971 28.4587ZM11.1382 35.2146C11.1382 34.7183 11.3315 34.2516 11.6824 33.9007L13.0849 32.4984C13.4357 32.1479 13.902 31.9549 14.3979 31.9549C16.0436 31.952 16.8778 33.9648 15.7117 35.1267L14.4749 36.3635C14.0969 36.792 13.5775 37.0819 12.9961 37.0726C11.9976 37.0931 11.1175 36.2134 11.1382 35.2146ZM16.7947 41.3107C16.0739 40.6192 16.0739 39.3748 16.7947 38.6833L18.0315 37.4463C18.7525 36.5903 20.0184 36.4789 20.8241 37.2814C21.5484 38.0059 21.5484 39.1844 20.8241 39.909L19.4222 41.3108C18.6979 42.0355 17.5191 42.0354 16.7947 41.3107ZM27.0908 43.5373L25.689 44.939C25.3381 45.2899 24.8715 45.4833 24.3752 45.4833C23.8789 45.4833 23.4123 45.2899 23.0614 44.939C22.3407 44.2473 22.3404 43.003 23.0615 42.3114L24.4631 40.9097C25.1874 40.1852 26.3663 40.1852 27.0906 40.9096C27.8115 41.6013 27.8116 42.8456 27.0908 43.5373ZM41.8711 28.6333C41.1794 29.3541 39.935 29.3542 39.2435 28.6333L31.9433 21.3331L29.6235 23.6529L36.9237 30.9531C37.6481 31.6775 37.6481 32.8562 36.9237 33.5806C36.1992 34.3053 35.0206 34.3051 34.2961 33.5806L27.1197 26.4042L26.9959 26.2804L24.6762 28.6002L24.8 28.724L31.9764 35.9004C32.7009 36.6249 32.7009 37.8036 31.9764 38.5281C31.2519 39.2526 30.0732 39.2526 29.3487 38.5281L29.3473 38.5295C28.0144 37.2409 26.1515 36.8166 24.469 37.2566C23.9333 35.068 21.7332 33.411 19.5208 33.4593C19.4135 31.1035 17.4219 28.9755 15.0684 28.7212C15.3789 24.6795 10.94 21.8961 7.43694 23.8871C2.55818 19.5291 2.25767 11.8787 6.92089 7.24755C11.5573 2.57864 19.2181 2.888 23.5742 7.77759L19.5187 11.8331L22.7684 15.0828C25.2646 17.5793 29.1113 17.9228 31.9794 16.1136L41.8714 26.0057C42.5954 26.7301 42.5954 27.9088 41.8711 28.6333ZM44.8668 23.3711L44.367 23.8708C44.31 23.808 44.2513 23.7464 44.1909 23.686L32.1083 11.6033L30.9484 12.7631C29.3327 14.3787 26.7039 14.3789 25.0879 12.7631L24.158 11.8331L28.7435 7.24755C39.8825 -3.0048 55.117 12.2393 44.8668 23.3711Z" fill="url(#paint0_linear_64_449)"/>
<defs>
<linearGradient id="paint0_linear_64_449" x1="0.3125" y1="24.6993" x2="51.4798" y2="24.6993" gradientUnits="userSpaceOnUse">
<stop offset="0.0360001" stop-color="#CE4F57"/>
<stop offset="0.661" stop-color="#92298D"/>
</linearGradient>
</defs>
</svg>
