<svg width="38" height="38" viewBox="0 0 38 38" fill="none" xmlns="http://www.w3.org/2000/svg">
<path d="M14.6394 24.4158L14.0729 27.7805C13.9957 28.2405 14.1844 28.7041 14.561 28.9786C14.9382 29.2525 15.439 29.2892 15.8511 29.0733L18.8762 27.4941L21.9014 29.0736C22.0803 29.1664 22.2765 29.2132 22.4705 29.2132C22.7246 29.2132 22.9782 29.1336 23.1921 28.9789C23.5689 28.7044 23.7583 28.2408 23.6805 27.7808L23.1145 24.4161L25.5504 22.0267C25.8835 21.7004 26.0021 21.2134 25.8592 20.7703C25.7157 20.3274 25.3318 20.0032 24.8709 19.9352L21.4955 19.4346L19.9752 16.379C19.769 15.9619 19.3419 15.6978 18.8759 15.6978C18.4109 15.6978 17.984 15.9619 17.7761 16.379L16.2573 19.4346L12.8819 19.9349C12.4201 20.0029 12.0379 20.3271 11.8941 20.77C11.7504 21.2131 11.8687 21.7007 12.2024 22.0264L14.6394 24.4158Z" fill="url(#paint0_linear_64_413)"/>
<path d="M33.3829 4.56986H29.5179V2.426C29.5179 1.44208 28.7204 0.644531 27.7362 0.644531H27.4536C26.4697 0.644531 25.6725 1.44208 25.6725 2.426V4.56986H12.0357V2.426C12.0357 1.44208 11.2382 0.644531 10.2546 0.644531H9.97176C8.98784 0.644531 8.19059 1.44208 8.19059 2.426V4.56986H4.37058C2.34919 4.56986 0.704102 6.21436 0.704102 8.23633V33.9014C0.704102 35.9222 2.34919 37.5678 4.37058 37.5678H33.3832C35.4043 37.5678 37.0497 35.9225 37.0497 33.9014V8.23633C37.0494 6.21436 35.404 4.56986 33.3829 4.56986ZM32.9045 33.423H4.84893V13.4444H32.9045V33.423Z" fill="url(#paint1_linear_64_413)"/>
<defs>
<linearGradient id="paint0_linear_64_413" x1="11.834" y1="22.4555" x2="25.9188" y2="22.4555" gradientUnits="userSpaceOnUse">
<stop offset="0.0360001" stop-color="#CE4F57"/>
<stop offset="0.661" stop-color="#92298D"/>
</linearGradient>
<linearGradient id="paint1_linear_64_413" x1="0.704102" y1="19.1062" x2="37.0497" y2="19.1062" gradientUnits="userSpaceOnUse">
<stop offset="0.0360001" stop-color="#CE4F57"/>
<stop offset="0.661" stop-color="#92298D"/>
</linearGradient>
</defs>
</svg>
