<svg width="50" height="51" viewBox="0 0 50 51" fill="none" xmlns="http://www.w3.org/2000/svg">
<path d="M47.674 22.398C47.6725 22.3969 47.6714 22.3954 47.6703 22.3943L27.9198 2.6465C27.0779 1.80437 25.9587 1.34082 24.7681 1.34082C23.5775 1.34082 22.4583 1.80437 21.616 2.6465L1.87588 22.3843C1.86924 22.391 1.86222 22.398 1.85594 22.4046C0.127163 24.1432 0.130118 26.964 1.86443 28.6981C2.65679 29.4908 3.70292 29.9495 4.82182 29.9979C4.86762 30.0023 4.91343 30.0045 4.9596 30.0045H5.74642V44.5373C5.74642 47.4135 8.08691 49.7534 10.9634 49.7534H18.6904C19.4739 49.7534 20.1089 49.1181 20.1089 48.3351V36.9411C20.1089 35.6288 21.1768 34.5613 22.4893 34.5613H27.0469C28.3594 34.5613 29.4269 35.6288 29.4269 36.9411V48.3351C29.4269 49.1181 30.0619 49.7534 30.8454 49.7534H38.5724C41.4493 49.7534 43.7894 47.4135 43.7894 44.5373V30.0045H44.5194C45.7095 30.0045 46.8288 29.541 47.6714 28.6985C49.4076 26.9618 49.4083 24.1358 47.674 22.398ZM45.6652 26.6929C45.359 26.9991 44.9519 27.1679 44.5194 27.1679H42.3709C41.5875 27.1679 40.9525 27.8028 40.9525 28.5862V44.5373C40.9525 45.8493 39.8849 46.9168 38.5724 46.9168H32.2639V36.9411C32.2639 34.0649 29.9238 31.7247 27.0469 31.7247H22.4893C19.6124 31.7247 17.2719 34.0649 17.2719 36.9411V46.9168H10.9634C9.65131 46.9168 8.58338 45.8493 8.58338 44.5373V28.5862C8.58338 27.8028 7.94839 27.1679 7.1649 27.1679H5.05343C5.03127 27.1664 5.00947 27.1653 4.98694 27.1649C4.56435 27.1575 4.16799 26.9898 3.87099 26.6925C3.23933 26.0609 3.23933 25.033 3.87099 24.401C3.87136 24.401 3.87136 24.4006 3.87173 24.4003L3.87284 24.3992L23.6226 4.65212C23.9285 4.34592 24.3352 4.1775 24.7681 4.1775C25.2007 4.1775 25.6074 4.34592 25.9136 4.65212L45.6589 24.3951C45.6619 24.398 45.6652 24.401 45.6682 24.404C46.2965 25.0367 46.2954 26.0624 45.6652 26.6929Z" fill="url(#paint0_linear_64_409)" stroke="url(#paint1_linear_64_409)"/>
<defs>
<linearGradient id="paint0_linear_64_409" x1="0.561523" y1="25.5471" x2="48.9741" y2="25.5471" gradientUnits="userSpaceOnUse">
<stop offset="0.0360001" stop-color="#CE4F57"/>
<stop offset="0.661" stop-color="#92298D"/>
</linearGradient>
<linearGradient id="paint1_linear_64_409" x1="0.561523" y1="25.5471" x2="48.9741" y2="25.5471" gradientUnits="userSpaceOnUse">
<stop offset="0.0360001" stop-color="#CE4F57"/>
<stop offset="0.661" stop-color="#92298D"/>
</linearGradient>
</defs>
</svg>
