<svg width="46" height="46" viewBox="0 0 46 46" fill="none" xmlns="http://www.w3.org/2000/svg">
<g clip-path="url(#clip0_64_454)">
<path d="M31.9679 11.4154C31.9679 8.50044 34.3395 6.12891 37.2545 6.12891C40.1695 6.12891 42.541 8.50044 42.541 11.4154C42.541 14.3304 40.1695 16.702 37.2545 16.702C34.3395 16.702 31.9679 14.3304 31.9679 11.4154ZM37.2545 14.0587C38.712 14.0587 39.8977 12.8729 39.8977 11.4154C39.8977 9.95794 38.712 8.77217 37.2545 8.77217C35.797 8.77217 34.6112 9.95794 34.6112 11.4154C34.6112 12.8729 35.797 14.0587 37.2545 14.0587Z" fill="url(#paint0_linear_64_454)"/>
<path d="M2.89178 11.4154C2.89178 8.50044 5.26332 6.12891 8.17831 6.12891C11.0933 6.12891 13.4648 8.50044 13.4648 11.4154C13.4648 14.3304 11.0933 16.702 8.17831 16.702C5.26332 16.702 2.89178 14.3304 2.89178 11.4154ZM8.17831 14.0587C9.63581 14.0587 10.8216 12.8729 10.8216 11.4154C10.8216 9.95794 9.63581 8.77217 8.17831 8.77217C6.72081 8.77217 5.53504 9.95794 5.53504 11.4154C5.53504 12.8729 6.72081 14.0587 8.17831 14.0587Z" fill="url(#paint1_linear_64_454)"/>
<path d="M8.17862 16.7019C10.6204 16.7019 12.8075 17.8115 14.2633 19.5526C15.7065 16.3185 18.9524 14.0586 22.7166 14.0586C26.4808 14.0586 29.7267 16.3185 31.1698 19.5526C32.6257 17.8115 34.8128 16.7019 37.2546 16.7019C41.6525 16.7019 45.2725 20.2634 45.2725 24.6317V31.2398C45.2725 31.9697 44.6807 32.5615 43.9508 32.5615H42.5052L41.3011 44.7622C41.2344 45.4385 40.6656 45.954 39.9859 45.954H34.6113C33.9316 45.954 33.3628 45.4385 33.2961 44.7622L32.092 32.5615H27.6786L26.677 44.7407C26.6207 45.4263 26.0478 45.954 25.3599 45.954H20.0733C19.3854 45.954 18.8125 45.4263 18.7562 44.7407L17.7545 32.5615H13.3412L12.1372 44.7622C12.0704 45.4385 11.5016 45.954 10.8219 45.954H5.44725C4.76757 45.954 4.19874 45.4385 4.13196 44.7622L2.92795 32.5615H1.48235C0.752452 32.5615 0.160713 31.9697 0.160713 31.2398V24.6317C0.160713 20.2686 3.77609 16.7019 8.17862 16.7019ZM33.2897 29.9182C33.9693 29.9182 34.5382 30.4337 34.6049 31.11L35.809 43.3107H38.7883L39.9924 31.11C40.0591 30.4337 40.6279 29.9182 41.3076 29.9182H42.6292V24.6317C42.6292 21.7167 40.2182 19.3451 37.2546 19.3451C34.3396 19.3451 31.968 21.7167 31.968 24.6317V29.9182H33.2897ZM18.9719 29.9182C19.6598 29.9182 20.2327 30.4459 20.289 31.1315L21.2907 43.3107H24.1425L25.1441 31.1315C25.2005 30.446 25.7733 29.9182 26.4613 29.9182H29.3248V23.31C29.3248 20.1188 27.0508 17.4488 24.0382 16.8348V23.31C24.0382 24.0399 23.4465 24.6317 22.7166 24.6317C21.9867 24.6317 21.395 24.0399 21.395 23.31V16.8348C18.3823 17.4488 16.1084 20.1187 16.1084 23.31V29.9182H18.9719ZM2.80398 29.9182H4.12561C4.80528 29.9182 5.37412 30.4337 5.4409 31.11L6.64491 43.3107H9.62423L10.8282 31.11C10.895 30.4337 11.4638 29.9182 12.1435 29.9182H13.4652V24.6317C13.4652 21.7167 11.0936 19.3451 8.17862 19.3451C5.21499 19.3451 2.80398 21.7167 2.80398 24.6317V29.9182Z" fill="url(#paint2_linear_64_454)"/>
<path d="M16.1089 7.45045C16.1089 3.80671 19.0733 0.842285 22.717 0.842285C26.3608 0.842285 29.3252 3.80671 29.3252 7.45045C29.3252 11.0942 26.3608 14.0586 22.717 14.0586C19.0733 14.0586 16.1089 11.0942 16.1089 7.45045ZM22.717 11.4154C24.9033 11.4154 26.6819 9.6367 26.6819 7.45045C26.6819 5.26421 24.9033 3.48555 22.717 3.48555C20.5308 3.48555 18.7521 5.26421 18.7521 7.45045C18.7521 9.6367 20.5308 11.4154 22.717 11.4154Z" fill="url(#paint3_linear_64_454)"/>
</g>
<defs>
<linearGradient id="paint0_linear_64_454" x1="42.541" y1="11.4154" x2="31.9679" y2="11.4154" gradientUnits="userSpaceOnUse">
<stop offset="0.0360001" stop-color="#CE4F57"/>
<stop offset="0.661" stop-color="#92298D"/>
</linearGradient>
<linearGradient id="paint1_linear_64_454" x1="13.4648" y1="11.4154" x2="2.89178" y2="11.4154" gradientUnits="userSpaceOnUse">
<stop offset="0.0360001" stop-color="#CE4F57"/>
<stop offset="0.661" stop-color="#92298D"/>
</linearGradient>
<linearGradient id="paint2_linear_64_454" x1="45.2725" y1="30.0063" x2="0.160713" y2="30.0063" gradientUnits="userSpaceOnUse">
<stop offset="0.0360001" stop-color="#CE4F57"/>
<stop offset="0.661" stop-color="#92298D"/>
</linearGradient>
<linearGradient id="paint3_linear_64_454" x1="29.3252" y1="7.45045" x2="16.1089" y2="7.45045" gradientUnits="userSpaceOnUse">
<stop offset="0.0360001" stop-color="#CE4F57"/>
<stop offset="0.661" stop-color="#92298D"/>
</linearGradient>
<clipPath id="clip0_64_454">
<rect width="45.1117" height="45.1117" fill="white" transform="matrix(-1 0 0 1 45.2725 0.842285)"/>
</clipPath>
</defs>
</svg>
