<svg width="56" height="56" viewBox="0 0 56 56" fill="none" xmlns="http://www.w3.org/2000/svg">
<path d="M33.4355 1.33948L33.4356 1.33951C34.1152 1.47728 34.5546 2.13923 34.4173 2.8189C34.2799 3.49862 33.617 3.93797 32.9382 3.80067C31.3296 3.47559 29.6741 3.31075 28.0176 3.31075C14.3942 3.31075 3.31075 14.3942 3.31075 28.0176C3.31075 33.4616 5.1239 38.7771 8.43028 43.0758C9.06641 42.7565 9.77234 42.5875 10.5037 42.5875C11.7407 42.5875 12.9047 43.0694 13.7795 43.9442L33.4355 1.33948ZM33.4355 1.33948C31.6632 0.98146 29.8406 0.8 28.0176 0.8M33.4355 1.33948L28.0176 0.8M28.0176 0.8C20.748 0.8 13.9122 3.63142 8.77183 8.77183M28.0176 0.8L8.77183 8.77183M8.77183 8.77183C3.63142 13.9122 0.8 20.748 0.8 28.0176M8.77183 8.77183L0.8 28.0176M0.8 28.0176C0.8 34.0852 2.84405 40.0073 6.56858 44.7727M0.8 28.0176L6.56858 44.7727M6.56858 44.7727C6.11423 45.5003 5.87116 46.3419 5.87116 47.2201C5.87116 48.4571 6.35354 49.621 7.22831 50.4954C8.10269 51.3702 9.26667 51.8526 10.5037 51.8526C11.7408 51.8526 12.9047 51.3702 13.7795 50.4955L6.56858 44.7727ZM15.1363 47.2196C15.1363 48.4566 14.6544 49.621 13.7795 50.4954L15.1363 47.2196ZM15.1363 47.2196C15.1363 45.9831 14.6544 44.8187 13.7795 43.9443L15.1363 47.2196ZM12.0039 48.7202L12.0038 48.7203C11.6032 49.1214 11.0707 49.3419 10.5037 49.3419C9.93678 49.3419 9.40471 49.1214 9.00355 48.7202C8.60239 48.3191 8.38191 47.787 8.38191 47.2201C8.38191 46.6527 8.6024 46.1206 9.00355 45.7195L9.00362 45.7194C9.40424 45.3184 9.93664 45.0982 10.5037 45.0982C11.0707 45.0982 11.6028 45.3187 12.004 45.7195C12.4051 46.1207 12.6256 46.6527 12.6256 47.2201C12.6256 47.787 12.4051 48.3191 12.0039 48.7202Z" fill="url(#paint0_linear_64_612)" stroke="url(#paint1_linear_64_612)" stroke-width="0.4"/>
<path d="M48.8076 5.5391L48.8076 5.53906C47.9328 4.66473 46.7689 4.18232 45.5318 4.18232C44.2947 4.18232 43.1308 4.66473 42.256 5.53906L42.256 5.5391C41.3812 6.41391 40.8992 7.57787 40.8992 8.8149C40.8992 10.0519 41.3812 11.2159 42.256 12.0907C43.1308 12.9655 44.2948 13.4475 45.5318 13.4475C46.2632 13.4475 46.9691 13.2784 47.6052 12.9591C50.9116 17.2582 52.7248 22.5734 52.7248 28.0174C52.7248 41.6408 41.6414 52.7242 28.0179 52.7242C26.3778 52.7242 24.7378 52.5626 23.1443 52.2437L23.1443 52.2437C22.4646 52.1078 21.8032 52.5487 21.6669 53.2283L21.6668 53.2284C21.531 53.9085 21.9718 54.5695 22.6514 54.7058L22.6516 54.7059C24.4072 55.0568 26.2128 55.235 28.0179 55.235C35.2875 55.235 42.1233 52.4035 47.2637 47.2631C52.4041 42.1227 55.2355 35.2869 55.2355 28.0174C55.2355 21.9493 53.191 16.0266 49.4659 11.2608C50.5767 9.47423 50.3583 7.08976 48.8076 5.5391ZM44.0316 7.31472L44.0317 7.31465C44.4324 6.91359 44.9648 6.69307 45.5318 6.69307C46.0988 6.69307 46.6312 6.91357 47.0323 7.31468C47.8592 8.1419 47.8592 9.48831 47.0323 10.3155C46.6312 10.7162 46.0987 10.9367 45.5318 10.9367C44.9644 10.9367 44.4323 10.7162 44.0316 10.3155C43.6305 9.91434 43.41 9.38228 43.41 8.8149C43.41 8.24795 43.6304 7.71588 44.0316 7.31472Z" fill="url(#paint2_linear_64_612)" stroke="url(#paint3_linear_64_612)" stroke-width="0.4"/>
<mask id="path-3-outside-1_64_612" maskUnits="userSpaceOnUse" x="7.80811" y="7.80957" width="40" height="40" fill="black">
<rect fill="white" x="7.80811" y="7.80957" width="40" height="40"/>
<path d="M23.6625 46.1698C23.6625 46.7528 24.1354 47.2252 24.7179 47.2252H31.3169C31.8998 47.2252 32.3722 46.7528 32.3722 46.1698V44.1238C33.7599 43.7503 35.0865 43.2004 36.3332 42.4822L37.7777 43.9268C37.9756 44.1246 38.244 44.2359 38.5243 44.2359C38.8038 44.2359 39.0726 44.1246 39.2705 43.9263L43.9348 39.2588C44.3466 38.8465 44.3466 38.1783 43.9348 37.7664L42.4919 36.3235C43.21 35.0769 43.76 33.7502 44.1335 32.3626H46.1717C46.7546 32.3626 47.227 31.8901 47.227 31.3072V24.7082C47.227 24.1253 46.7546 23.6528 46.1717 23.6528H44.1331C43.7596 22.2656 43.21 20.939 42.4919 19.6923L43.9269 18.2572C44.1248 18.0594 44.2361 17.7906 44.2361 17.5106C44.2357 17.2307 44.1244 16.9619 43.9265 16.764L39.2586 12.0998C38.8467 11.6879 38.1784 11.6879 37.7662 12.1002L36.3332 13.5336C35.0865 12.8155 33.7599 12.2655 32.3722 11.892V9.86495C32.3722 9.28202 31.8998 8.80957 31.3169 8.80957H24.7179C24.1354 8.80957 23.6625 9.28202 23.6625 9.86495V11.8924C22.2753 12.2655 20.9486 12.8155 19.702 13.5336L18.2686 12.1002C17.8567 11.6884 17.1884 11.6879 16.7762 12.0998L12.1086 16.7645C11.9103 16.9623 11.799 17.2307 11.799 17.5106C11.799 17.7906 11.9103 18.0594 12.1082 18.2572L13.5433 19.6923C12.8251 20.939 12.2752 22.2652 11.9017 23.6528H9.86719C9.28426 23.6528 8.81182 24.1253 8.81182 24.7078L8.80811 31.3068C8.80769 31.5867 8.919 31.8555 9.11689 32.0534C9.31477 32.2513 9.58315 32.3626 9.86348 32.3626H11.9017C12.2752 33.7502 12.8251 35.0769 13.5433 36.3235L12.1004 37.7664C11.6885 38.1783 11.6881 38.8465 12.1004 39.2588L16.7646 43.9263C16.9625 44.1242 17.2309 44.2359 17.5108 44.2359H17.5112C17.7912 44.2359 18.0595 44.1246 18.2574 43.9268L19.7016 42.4822C20.9486 43.2004 22.2753 43.7503 23.6625 44.1238V46.1698ZM20.1155 40.2626C19.6978 39.9926 19.1483 40.0511 18.7962 40.4028L17.5112 41.6878L14.3389 38.513L15.6227 37.2288C15.9743 36.8772 16.0329 36.3276 15.7629 35.91C14.806 34.4292 14.1332 32.8062 13.7638 31.0854C13.6591 30.5993 13.2296 30.2518 12.732 30.2518H10.9193L10.9217 25.7636H12.732C13.2296 25.7636 13.6591 25.4165 13.7638 24.93C14.1332 23.2097 14.806 21.5866 15.7629 20.1058C16.0329 19.6882 15.9743 19.1386 15.6227 18.787L14.3472 17.5111L17.522 14.3387L18.7962 15.6134C19.1483 15.9651 19.6974 16.0232 20.1155 15.7536C21.5959 14.7968 23.2189 14.124 24.9397 13.7546C25.4257 13.6499 25.7733 13.2199 25.7733 12.7227V10.9203H30.2615V12.7223C30.2615 13.2199 30.6086 13.6499 31.0951 13.7542C32.8154 14.124 34.4389 14.7963 35.9193 15.7532C36.3369 16.0232 36.8864 15.9651 37.2381 15.613L38.5128 14.3387L41.6876 17.5111L40.412 18.7866C40.06 19.1386 40.0019 19.6882 40.2719 20.1058C41.2287 21.5866 41.9011 23.2097 42.2709 24.93C42.3752 25.4165 42.8052 25.7636 43.3028 25.7636H45.1163V30.2518H43.3028C42.8052 30.2518 42.3756 30.5993 42.2709 31.0854C41.9015 32.8057 41.2287 34.4292 40.2719 35.9096C40.0019 36.3276 40.0604 36.8772 40.412 37.2288L41.6958 38.5126L38.5235 41.6874L37.2385 40.4028C36.8864 40.0507 36.3369 39.9926 35.9193 40.2626C34.4385 41.2195 32.8154 41.8919 31.0951 42.2617C30.6086 42.3664 30.2615 42.7959 30.2615 43.2935V45.1145H25.7733V43.2935C25.7733 42.7963 25.4257 42.3664 24.9397 42.2617C23.2193 41.8923 21.5963 41.2195 20.1155 40.2626Z"/>
</mask>
<path d="M23.6625 46.1698C23.6625 46.7528 24.1354 47.2252 24.7179 47.2252H31.3169C31.8998 47.2252 32.3722 46.7528 32.3722 46.1698V44.1238C33.7599 43.7503 35.0865 43.2004 36.3332 42.4822L37.7777 43.9268C37.9756 44.1246 38.244 44.2359 38.5243 44.2359C38.8038 44.2359 39.0726 44.1246 39.2705 43.9263L43.9348 39.2588C44.3466 38.8465 44.3466 38.1783 43.9348 37.7664L42.4919 36.3235C43.21 35.0769 43.76 33.7502 44.1335 32.3626H46.1717C46.7546 32.3626 47.227 31.8901 47.227 31.3072V24.7082C47.227 24.1253 46.7546 23.6528 46.1717 23.6528H44.1331C43.7596 22.2656 43.21 20.939 42.4919 19.6923L43.9269 18.2572C44.1248 18.0594 44.2361 17.7906 44.2361 17.5106C44.2357 17.2307 44.1244 16.9619 43.9265 16.764L39.2586 12.0998C38.8467 11.6879 38.1784 11.6879 37.7662 12.1002L36.3332 13.5336C35.0865 12.8155 33.7599 12.2655 32.3722 11.892V9.86495C32.3722 9.28202 31.8998 8.80957 31.3169 8.80957H24.7179C24.1354 8.80957 23.6625 9.28202 23.6625 9.86495V11.8924C22.2753 12.2655 20.9486 12.8155 19.702 13.5336L18.2686 12.1002C17.8567 11.6884 17.1884 11.6879 16.7762 12.0998L12.1086 16.7645C11.9103 16.9623 11.799 17.2307 11.799 17.5106C11.799 17.7906 11.9103 18.0594 12.1082 18.2572L13.5433 19.6923C12.8251 20.939 12.2752 22.2652 11.9017 23.6528H9.86719C9.28426 23.6528 8.81182 24.1253 8.81182 24.7078L8.80811 31.3068C8.80769 31.5867 8.919 31.8555 9.11689 32.0534C9.31477 32.2513 9.58315 32.3626 9.86348 32.3626H11.9017C12.2752 33.7502 12.8251 35.0769 13.5433 36.3235L12.1004 37.7664C11.6885 38.1783 11.6881 38.8465 12.1004 39.2588L16.7646 43.9263C16.9625 44.1242 17.2309 44.2359 17.5108 44.2359H17.5112C17.7912 44.2359 18.0595 44.1246 18.2574 43.9268L19.7016 42.4822C20.9486 43.2004 22.2753 43.7503 23.6625 44.1238V46.1698ZM20.1155 40.2626C19.6978 39.9926 19.1483 40.0511 18.7962 40.4028L17.5112 41.6878L14.3389 38.513L15.6227 37.2288C15.9743 36.8772 16.0329 36.3276 15.7629 35.91C14.806 34.4292 14.1332 32.8062 13.7638 31.0854C13.6591 30.5993 13.2296 30.2518 12.732 30.2518H10.9193L10.9217 25.7636H12.732C13.2296 25.7636 13.6591 25.4165 13.7638 24.93C14.1332 23.2097 14.806 21.5866 15.7629 20.1058C16.0329 19.6882 15.9743 19.1386 15.6227 18.787L14.3472 17.5111L17.522 14.3387L18.7962 15.6134C19.1483 15.9651 19.6974 16.0232 20.1155 15.7536C21.5959 14.7968 23.2189 14.124 24.9397 13.7546C25.4257 13.6499 25.7733 13.2199 25.7733 12.7227V10.9203H30.2615V12.7223C30.2615 13.2199 30.6086 13.6499 31.0951 13.7542C32.8154 14.124 34.4389 14.7963 35.9193 15.7532C36.3369 16.0232 36.8864 15.9651 37.2381 15.613L38.5128 14.3387L41.6876 17.5111L40.412 18.7866C40.06 19.1386 40.0019 19.6882 40.2719 20.1058C41.2287 21.5866 41.9011 23.2097 42.2709 24.93C42.3752 25.4165 42.8052 25.7636 43.3028 25.7636H45.1163V30.2518H43.3028C42.8052 30.2518 42.3756 30.5993 42.2709 31.0854C41.9015 32.8057 41.2287 34.4292 40.2719 35.9096C40.0019 36.3276 40.0604 36.8772 40.412 37.2288L41.6958 38.5126L38.5235 41.6874L37.2385 40.4028C36.8864 40.0507 36.3369 39.9926 35.9193 40.2626C34.4385 41.2195 32.8154 41.8919 31.0951 42.2617C30.6086 42.3664 30.2615 42.7959 30.2615 43.2935V45.1145H25.7733V43.2935C25.7733 42.7963 25.4257 42.3664 24.9397 42.2617C23.2193 41.8923 21.5963 41.2195 20.1155 40.2626Z" fill="url(#paint4_linear_64_612)"/>
<path d="M23.6625 46.1698C23.6625 46.7528 24.1354 47.2252 24.7179 47.2252H31.3169C31.8998 47.2252 32.3722 46.7528 32.3722 46.1698V44.1238C33.7599 43.7503 35.0865 43.2004 36.3332 42.4822L37.7777 43.9268C37.9756 44.1246 38.244 44.2359 38.5243 44.2359C38.8038 44.2359 39.0726 44.1246 39.2705 43.9263L43.9348 39.2588C44.3466 38.8465 44.3466 38.1783 43.9348 37.7664L42.4919 36.3235C43.21 35.0769 43.76 33.7502 44.1335 32.3626H46.1717C46.7546 32.3626 47.227 31.8901 47.227 31.3072V24.7082C47.227 24.1253 46.7546 23.6528 46.1717 23.6528H44.1331C43.7596 22.2656 43.21 20.939 42.4919 19.6923L43.9269 18.2572C44.1248 18.0594 44.2361 17.7906 44.2361 17.5106C44.2357 17.2307 44.1244 16.9619 43.9265 16.764L39.2586 12.0998C38.8467 11.6879 38.1784 11.6879 37.7662 12.1002L36.3332 13.5336C35.0865 12.8155 33.7599 12.2655 32.3722 11.892V9.86495C32.3722 9.28202 31.8998 8.80957 31.3169 8.80957H24.7179C24.1354 8.80957 23.6625 9.28202 23.6625 9.86495V11.8924C22.2753 12.2655 20.9486 12.8155 19.702 13.5336L18.2686 12.1002C17.8567 11.6884 17.1884 11.6879 16.7762 12.0998L12.1086 16.7645C11.9103 16.9623 11.799 17.2307 11.799 17.5106C11.799 17.7906 11.9103 18.0594 12.1082 18.2572L13.5433 19.6923C12.8251 20.939 12.2752 22.2652 11.9017 23.6528H9.86719C9.28426 23.6528 8.81182 24.1253 8.81182 24.7078L8.80811 31.3068C8.80769 31.5867 8.919 31.8555 9.11689 32.0534C9.31477 32.2513 9.58315 32.3626 9.86348 32.3626H11.9017C12.2752 33.7502 12.8251 35.0769 13.5433 36.3235L12.1004 37.7664C11.6885 38.1783 11.6881 38.8465 12.1004 39.2588L16.7646 43.9263C16.9625 44.1242 17.2309 44.2359 17.5108 44.2359H17.5112C17.7912 44.2359 18.0595 44.1246 18.2574 43.9268L19.7016 42.4822C20.9486 43.2004 22.2753 43.7503 23.6625 44.1238V46.1698ZM20.1155 40.2626C19.6978 39.9926 19.1483 40.0511 18.7962 40.4028L17.5112 41.6878L14.3389 38.513L15.6227 37.2288C15.9743 36.8772 16.0329 36.3276 15.7629 35.91C14.806 34.4292 14.1332 32.8062 13.7638 31.0854C13.6591 30.5993 13.2296 30.2518 12.732 30.2518H10.9193L10.9217 25.7636H12.732C13.2296 25.7636 13.6591 25.4165 13.7638 24.93C14.1332 23.2097 14.806 21.5866 15.7629 20.1058C16.0329 19.6882 15.9743 19.1386 15.6227 18.787L14.3472 17.5111L17.522 14.3387L18.7962 15.6134C19.1483 15.9651 19.6974 16.0232 20.1155 15.7536C21.5959 14.7968 23.2189 14.124 24.9397 13.7546C25.4257 13.6499 25.7733 13.2199 25.7733 12.7227V10.9203H30.2615V12.7223C30.2615 13.2199 30.6086 13.6499 31.0951 13.7542C32.8154 14.124 34.4389 14.7963 35.9193 15.7532C36.3369 16.0232 36.8864 15.9651 37.2381 15.613L38.5128 14.3387L41.6876 17.5111L40.412 18.7866C40.06 19.1386 40.0019 19.6882 40.2719 20.1058C41.2287 21.5866 41.9011 23.2097 42.2709 24.93C42.3752 25.4165 42.8052 25.7636 43.3028 25.7636H45.1163V30.2518H43.3028C42.8052 30.2518 42.3756 30.5993 42.2709 31.0854C41.9015 32.8057 41.2287 34.4292 40.2719 35.9096C40.0019 36.3276 40.0604 36.8772 40.412 37.2288L41.6958 38.5126L38.5235 41.6874L37.2385 40.4028C36.8864 40.0507 36.3369 39.9926 35.9193 40.2626C34.4385 41.2195 32.8154 41.8919 31.0951 42.2617C30.6086 42.3664 30.2615 42.7959 30.2615 43.2935V45.1145H25.7733V43.2935C25.7733 42.7963 25.4257 42.3664 24.9397 42.2617C23.2193 41.8923 21.5963 41.2195 20.1155 40.2626Z" stroke="url(#paint5_linear_64_612)" stroke-width="0.8" mask="url(#path-3-outside-1_64_612)"/>
<path d="M36.9387 28.0173C36.9387 23.0983 32.9373 19.0969 28.0183 19.0969C23.0993 19.0969 19.0979 23.0983 19.0979 28.0173C19.0979 32.9363 23.0993 36.9378 28.0183 36.9378C32.9373 36.9378 36.9387 32.9363 36.9387 28.0173ZM21.6086 28.0173C21.6086 24.483 24.484 21.6076 28.0183 21.6076C31.5526 21.6076 34.428 24.4834 34.428 28.0173C34.428 31.5512 31.5526 34.427 28.0183 34.427C24.484 34.427 21.6086 31.5516 21.6086 28.0173Z" fill="url(#paint6_linear_64_612)" stroke="url(#paint7_linear_64_612)" stroke-width="0.4"/>
<path d="M38.6232 4.82361L38.6236 4.82317C38.8568 4.58852 38.9909 4.26587 38.9909 3.93477C38.9909 3.60541 38.8572 3.28224 38.6235 3.04746L38.6232 3.04716C38.3895 2.81349 38.0665 2.67939 37.7356 2.67939C37.4036 2.67939 37.0819 2.8136 36.8484 3.04717L36.8484 3.04716L36.8481 3.04746C36.6145 3.28201 36.4802 3.60385 36.4802 3.93477C36.4802 4.2668 36.6144 4.58868 36.8481 4.82331L36.8484 4.82361C37.0819 5.05717 37.4036 5.19138 37.7356 5.19138C38.0665 5.19138 38.3895 5.05729 38.6232 4.82361Z" fill="url(#paint8_linear_64_612)" stroke="url(#paint9_linear_64_612)" stroke-width="0.4"/>
<path d="M18.3459 50.8625C18.0154 50.8625 17.692 50.9966 17.4583 51.2303C17.2246 51.464 17.0905 51.7873 17.0905 52.1179C17.0905 52.4498 17.2247 52.7719 17.4583 53.0055C17.692 53.2392 18.0154 53.3732 18.3459 53.3732C18.6764 53.3732 18.9998 53.2392 19.2335 53.0055C19.4672 52.7718 19.6013 52.4484 19.6013 52.1179C19.6013 51.7873 19.4672 51.464 19.2335 51.2303C18.9998 50.9966 18.6764 50.8625 18.3459 50.8625Z" fill="url(#paint10_linear_64_612)" stroke="url(#paint11_linear_64_612)" stroke-width="0.4"/>
<defs>
<linearGradient id="paint0_linear_64_612" x1="1" y1="26.3263" x2="34.2423" y2="26.3263" gradientUnits="userSpaceOnUse">
<stop offset="0.0360001" stop-color="#CE4F57"/>
<stop offset="0.661" stop-color="#92298D"/>
</linearGradient>
<linearGradient id="paint1_linear_64_612" x1="1" y1="26.3263" x2="34.2423" y2="26.3263" gradientUnits="userSpaceOnUse">
<stop offset="0.0360001" stop-color="#CE4F57"/>
<stop offset="0.661" stop-color="#92298D"/>
</linearGradient>
<linearGradient id="paint2_linear_64_612" x1="21.8423" y1="29.7086" x2="55.0355" y2="29.7086" gradientUnits="userSpaceOnUse">
<stop offset="0.0360001" stop-color="#CE4F57"/>
<stop offset="0.661" stop-color="#92298D"/>
</linearGradient>
<linearGradient id="paint3_linear_64_612" x1="21.8423" y1="29.7086" x2="55.0355" y2="29.7086" gradientUnits="userSpaceOnUse">
<stop offset="0.0360001" stop-color="#CE4F57"/>
<stop offset="0.661" stop-color="#92298D"/>
</linearGradient>
<linearGradient id="paint4_linear_64_612" x1="8.80811" y1="28.0174" x2="47.227" y2="28.0174" gradientUnits="userSpaceOnUse">
<stop offset="0.0360001" stop-color="#CE4F57"/>
<stop offset="0.661" stop-color="#92298D"/>
</linearGradient>
<linearGradient id="paint5_linear_64_612" x1="8.80811" y1="28.0174" x2="47.227" y2="28.0174" gradientUnits="userSpaceOnUse">
<stop offset="0.0360001" stop-color="#CE4F57"/>
<stop offset="0.661" stop-color="#92298D"/>
</linearGradient>
<linearGradient id="paint6_linear_64_612" x1="19.2979" y1="28.0173" x2="36.7387" y2="28.0173" gradientUnits="userSpaceOnUse">
<stop offset="0.0360001" stop-color="#CE4F57"/>
<stop offset="0.661" stop-color="#92298D"/>
</linearGradient>
<linearGradient id="paint7_linear_64_612" x1="19.2979" y1="28.0173" x2="36.7387" y2="28.0173" gradientUnits="userSpaceOnUse">
<stop offset="0.0360001" stop-color="#CE4F57"/>
<stop offset="0.661" stop-color="#92298D"/>
</linearGradient>
<linearGradient id="paint8_linear_64_612" x1="36.6802" y1="3.93539" x2="38.7909" y2="3.93539" gradientUnits="userSpaceOnUse">
<stop offset="0.0360001" stop-color="#CE4F57"/>
<stop offset="0.661" stop-color="#92298D"/>
</linearGradient>
<linearGradient id="paint9_linear_64_612" x1="36.6802" y1="3.93539" x2="38.7909" y2="3.93539" gradientUnits="userSpaceOnUse">
<stop offset="0.0360001" stop-color="#CE4F57"/>
<stop offset="0.661" stop-color="#92298D"/>
</linearGradient>
<linearGradient id="paint10_linear_64_612" x1="17.2905" y1="52.1179" x2="19.4013" y2="52.1179" gradientUnits="userSpaceOnUse">
<stop offset="0.0360001" stop-color="#CE4F57"/>
<stop offset="0.661" stop-color="#92298D"/>
</linearGradient>
<linearGradient id="paint11_linear_64_612" x1="17.2905" y1="52.1179" x2="19.4013" y2="52.1179" gradientUnits="userSpaceOnUse">
<stop offset="0.0360001" stop-color="#CE4F57"/>
<stop offset="0.661" stop-color="#92298D"/>
</linearGradient>
</defs>
</svg>
