<svg width="36" height="36" viewBox="0 0 36 36" fill="none" xmlns="http://www.w3.org/2000/svg">
<mask id="mask0_79_2" style="mask-type:luminance" maskUnits="userSpaceOnUse" x="0" y="0" width="36" height="36">
<path d="M0.517077 13.5425C-1.82365 23.0777 4.00361 32.7111 13.5302 35.0539C23.06 37.3968 32.6816 31.5643 35.0223 22.0291C37.363 12.494 31.5358 2.86054 22.0092 0.517716C20.5851 0.167111 19.161 0 17.7566 0C9.76866 0 2.50751 5.43274 0.517077 13.5425Z" fill="white"/>
</mask>
<g mask="url(#mask0_79_2)">
<path d="M-15.6289 6.10126L30.9695 -14.4927L51.1717 31.2957L4.57006 51.8896L-15.6289 6.10126Z" fill="url(#paint0_linear_79_2)"/>
</g>
<mask id="mask1_79_2" style="mask-type:luminance" maskUnits="userSpaceOnUse" x="5" y="0" width="22" height="27">
<path d="M6.01985 12.1959C4.45828 18.5593 8.34421 24.9848 14.7018 26.5445C19.7859 27.7962 24.9224 24.6834 26.173 19.5914C27.1715 15.5185 24.6834 11.4063 20.6174 10.4069L23.9436 1.33047C22.7552 1.03885 21.5668 0.897949 20.3981 0.897949C13.7361 0.897949 7.68292 5.42632 6.02313 12.1927" fill="white"/>
</mask>
<g mask="url(#mask1_79_2)">
<path d="M39.4186 19.8732L20.48 -9.46289L-7.79199 8.82427L11.1466 38.1604L39.4186 19.8732Z" fill="url(#paint1_linear_79_2)"/>
</g>
<path d="M27.8267 17.088C27.7841 16.7374 27.7645 16.3868 27.6794 16.0428C27.3978 14.6666 26.8216 13.3428 25.9475 12.2451C25.08 11.1441 23.9571 10.243 22.6902 9.64014C22.3661 9.5058 22.0452 9.36162 21.7146 9.25349L21.2137 9.10604L20.9616 9.03395L20.6965 8.98153C19.9893 8.82097 19.2528 8.80459 18.5325 8.86684C17.0888 9.00446 15.6975 9.57461 14.5779 10.479C13.4517 11.3768 12.6071 12.6219 12.1815 13.985C11.9589 14.6469 11.8443 15.4235 11.8737 16.1607C11.8999 16.9045 12.0636 17.6418 12.355 18.3201C12.9344 19.6766 14.0148 20.8103 15.3472 21.4231C15.6811 21.5705 16.0216 21.7016 16.3751 21.7901C16.7222 21.8884 17.115 21.9408 17.4882 21.9572C18.2477 21.99 19.0072 21.8294 19.6914 21.5247C21.0697 20.925 22.114 19.6504 22.4446 18.2119C22.6247 17.4747 22.5985 16.6653 22.3432 15.9478C22.222 15.5873 22.0485 15.2465 21.8292 14.9385C21.7997 14.8959 21.7703 14.8599 21.7408 14.8173C22.2777 16.2656 21.8816 17.9531 20.6245 18.9918C19.3281 20.0665 17.5209 20.1157 16.1885 19.231C15.4814 18.8083 14.9314 18.1399 14.6499 17.3797C14.496 16.9668 14.4142 16.5343 14.4142 16.0985C14.4174 15.6561 14.4862 15.2498 14.6531 14.7976C14.9642 13.9228 15.5272 13.156 16.2573 12.6023C16.9841 12.0452 17.8745 11.711 18.7748 11.6487C19.2266 11.6291 19.6816 11.6389 20.1203 11.7503L20.2873 11.7831L20.4575 11.8388L20.8012 11.9436C21.0271 12.0223 21.2432 12.1271 21.4658 12.2156C22.3202 12.6416 23.0699 13.2641 23.6494 14.0211C24.2386 14.7714 24.6217 15.6758 24.8083 16.6031C24.8705 16.8325 24.8705 17.0717 24.9065 17.3076C24.9261 17.5435 24.913 17.7827 24.9196 18.0186C24.8901 18.2545 24.8869 18.4937 24.841 18.7264C24.7854 18.959 24.769 19.1917 24.6839 19.4309C24.4285 20.3942 23.9964 21.3084 23.4038 22.1112C22.8113 22.9107 22.0649 23.5955 21.2235 24.1329C19.5376 25.2175 17.4522 25.6238 15.4716 25.2666L15.0984 25.2011C14.974 25.1814 14.8496 25.1323 14.7252 25.0995L13.9722 24.8833C13.491 24.6834 12.9934 24.5196 12.5449 24.2541C12.0702 24.0346 11.6511 23.72 11.2092 23.4415L10.5937 22.9533L10.4398 22.8321L10.2991 22.6944L10.0175 22.4225C9.27112 21.6885 8.60983 20.8497 8.11877 19.9125C7.978 19.6897 7.86997 19.4472 7.76521 19.2048C7.66045 18.9623 7.5295 18.7297 7.45748 18.4708L7.19885 17.7172L7.01552 16.9406C6.94023 16.685 6.92713 16.4163 6.88784 16.1542C6.85183 15.8888 6.806 15.6266 6.80928 15.3579C6.80273 15.0925 6.78309 14.8238 6.78309 14.5552L6.83219 13.7524C6.93695 12.694 7.18903 11.6127 7.56551 10.574L7.8536 9.79742C7.96491 9.54511 8.09586 9.30264 8.21371 9.05034C8.43633 8.53917 8.74733 8.08044 9.03869 7.6086C9.17619 7.36612 9.35297 7.14986 9.52321 6.93032L10.0306 6.26516L10.6035 5.65242C10.7934 5.44599 10.98 5.23628 11.1961 5.05934C12.833 3.53241 14.8365 2.33642 17.043 1.70729C19.2429 1.06506 21.6164 0.93072 23.9473 1.32065C23.3777 1.17975 22.808 0.992978 22.222 0.897954C21.636 0.819314 21.0468 0.684969 20.4477 0.684969L19.5474 0.648926C19.2495 0.655479 18.9483 0.681693 18.6471 0.698077C18.0415 0.707907 17.4489 0.829144 16.8498 0.920891C16.5486 0.956934 16.2573 1.04868 15.9626 1.12077C15.668 1.19941 15.3734 1.27477 15.082 1.35997L14.2276 1.68108L13.7987 1.84164C13.6579 1.90062 13.5237 1.97271 13.3862 2.03824L12.5612 2.44455C12.2862 2.57889 12.0342 2.75911 11.769 2.91311C11.5104 3.08022 11.2321 3.22112 10.9931 3.41445L10.2532 3.97148C9.99789 4.14842 9.77528 4.36468 9.54939 4.57439L8.87173 5.21007L8.25627 5.908C8.0533 6.14392 7.83723 6.37001 7.66699 6.62887C7.30361 7.13348 6.92059 7.63153 6.62922 8.18529C6.47536 8.45726 6.31167 8.72594 6.16435 9.00119L5.77805 9.8564C5.26735 11 4.91051 12.2189 4.71409 13.4935L4.60605 14.4536C4.58968 14.7747 4.59295 15.0991 4.58641 15.4202C4.57004 15.7446 4.60278 16.0657 4.63224 16.3868C4.66825 16.7079 4.6748 17.0323 4.74683 17.3502C5.16259 19.9027 6.35095 22.3471 8.17115 24.2279L8.51162 24.5785L8.68185 24.7555L8.86846 24.916L9.61814 25.5517C10.1518 25.9285 10.6788 26.3283 11.2648 26.6232C11.8279 26.964 12.4434 27.1966 13.049 27.4587C13.36 27.5636 13.6743 27.6586 13.9886 27.7569C14.1457 27.8028 14.2996 27.8618 14.4633 27.8945L14.9576 27.9961C17.6061 28.5433 20.4608 28.0158 22.7655 26.5839C23.9211 25.8728 24.9392 24.9357 25.7577 23.8478C26.5728 22.7567 27.1752 21.505 27.532 20.1943C27.6433 19.8765 27.6826 19.5161 27.7547 19.1753C27.8169 18.828 27.8267 18.4741 27.8627 18.1267C27.8594 17.7729 27.8692 17.4223 27.8398 17.0717" fill="white"/>
<defs>
<linearGradient id="paint0_linear_79_2" x1="7.71047" y1="23.0569" x2="20.059" y2="17.6103" gradientUnits="userSpaceOnUse">
<stop stop-color="#CE4F57"/>
<stop offset="1" stop-color="#92298D"/>
</linearGradient>
<linearGradient id="paint1_linear_79_2" x1="22.9377" y1="25.9298" x2="14.7542" y2="13.2769" gradientUnits="userSpaceOnUse">
<stop stop-color="#F26624"/>
<stop offset="1" stop-color="#92298D"/>
</linearGradient>
</defs>
</svg>
