<svg width="199" height="67" viewBox="0 0 199 67" fill="none" xmlns="http://www.w3.org/2000/svg">
<g clip-path="url(#clip0_101_27)">
<mask id="mask0_101_27" style="mask-type:luminance" maskUnits="userSpaceOnUse" x="0" y="15" width="152" height="36">
<path d="M133.768 15.8746C132.812 16.2022 131.945 16.661 131.159 17.2442C130.373 17.8275 129.693 18.5254 129.11 19.3413C128.521 20.1539 128.092 21.0484 127.804 22.0118C127.479 22.2248 127.172 22.464 126.88 22.7327C126.573 22.4443 126.235 22.1854 125.882 21.9528C125.165 21.481 124.415 21.1172 123.613 20.8584C123.273 20.0622 122.808 19.3216 122.225 18.6335C121.642 17.952 120.978 17.372 120.238 16.9034C119.498 16.4316 118.703 16.0613 117.845 15.7894C116.99 15.5174 116.107 15.3831 115.196 15.3831C114.168 15.3831 113.18 15.5469 112.227 15.8778C111.271 16.2055 110.404 16.6642 109.618 17.2475C108.836 17.8307 108.151 18.5287 107.569 19.3446C106.979 20.1572 106.547 21.0517 106.262 22.0151C105.667 22.4115 105.123 22.8834 104.645 23.4371C104.639 23.4273 104.629 23.4175 104.619 23.4077C103.575 22.3362 102.324 21.5006 100.857 20.9043C99.3875 20.3046 97.7736 20.0032 96.0058 20.0032C94.9222 20.0032 93.9139 20.131 92.9907 20.3898C92.0642 20.6454 91.2163 20.9731 90.447 21.3728C89.7628 20.9731 89.0131 20.6618 88.2012 20.4324C87.3926 20.2063 86.5119 20.0916 85.5724 20.0916C84.4069 20.0916 83.2644 20.2981 82.1546 20.7109C81.0415 21.1271 80.0594 21.7136 79.205 22.4869C78.6877 22.9555 78.2261 23.483 77.83 24.0695C76.2848 22.5721 74.517 21.5465 72.5134 20.9895C70.4772 20.4193 68.2608 20.131 65.8677 20.131C64.4142 20.131 63.0458 20.226 61.7657 20.4095C60.4792 20.5963 59.2843 20.8289 58.1712 21.1172C57.3462 21.3433 56.5867 21.6939 55.8861 22.1658C55.1888 22.6344 54.5799 23.1979 54.0659 23.8566C54.0364 23.8959 54.0037 23.9352 53.9742 23.9745C53.7582 23.6862 53.5159 23.4109 53.2606 23.1488C52.4651 22.3362 51.5157 21.6939 50.419 21.2254C49.3255 20.7535 48.1666 20.5176 46.9423 20.5176C45.7179 20.5176 44.631 20.7306 43.59 21.1598C42.5489 21.5891 41.629 22.1756 40.8367 22.9161C40.0118 22.1461 39.0493 21.5563 37.9526 21.1402C36.8559 20.724 35.7395 20.5176 34.6003 20.5176C33.3202 20.5176 32.1319 20.7601 31.0352 21.245C29.9417 21.73 28.9858 22.3788 28.1772 23.1881C27.7385 23.6272 27.3522 24.1056 27.0216 24.6233C26.524 24.0925 25.9871 23.601 25.4043 23.1488C24.1341 22.1658 22.674 21.3925 21.0208 20.8387C19.3708 20.285 17.5408 20.0032 15.5504 20.0032C13.3537 20.0032 11.3207 20.3964 9.43832 21.1795C7.55592 21.9659 5.9256 23.0407 4.54408 24.4103C3.15929 25.78 2.07896 27.3986 1.29326 29.2664C0.517382 31.1341 0.127808 33.1525 0.127808 35.3184C0.127808 37.6579 0.556667 39.7616 1.40784 41.6293C2.26228 43.497 3.41464 45.0796 4.87145 46.3772C6.32499 47.678 8.03388 48.6741 10.0014 49.3754C11.9689 50.07 14.0641 50.4239 16.287 50.4239C18.3069 50.4239 20.1565 50.1552 21.8196 49.6309C23.4859 49.1034 25.0082 48.3399 26.3734 47.3405C27.4013 46.6 28.1805 45.6694 28.7239 44.5619C29.2673 43.4478 29.5358 42.2912 29.5358 41.0952C29.5358 40.8855 29.526 40.679 29.5063 40.4759L30.7765 43.533C31.2021 44.5619 31.7652 45.4925 32.4658 46.3379C33.1631 47.1767 33.9455 47.891 34.8163 48.4775C35.6871 49.0608 36.6267 49.513 37.6383 49.8243C38.6499 50.1355 39.6844 50.2928 40.7353 50.2928C41.7861 50.2928 42.8665 50.129 43.878 49.8046C44.8896 49.4769 45.8161 49.0182 46.6574 48.4349C47.4955 47.8484 48.2518 47.1472 48.9196 46.3379C49.5874 45.5253 50.1243 44.6471 50.527 43.7067L51.0279 42.5271C51.1785 43.1267 51.3847 43.6903 51.6368 44.2179C52.2948 45.5908 53.1689 46.7376 54.2656 47.6617C55.3623 48.589 56.6096 49.2803 58.0075 49.7391C59.4054 50.1945 60.8426 50.4272 62.3256 50.4272C63.324 50.4272 64.2571 50.3321 65.1279 50.1487C65.9954 49.9652 66.8171 49.7129 67.5832 49.4016C68.2707 49.7718 68.9909 50.0635 69.7635 50.2764C70.5328 50.4894 71.3447 50.5976 72.1991 50.5976C73.4792 50.5976 74.6937 50.3551 75.833 49.8701C76.9723 49.3852 77.9675 48.7167 78.8219 47.8615C78.9529 47.7305 79.0773 47.5994 79.1951 47.4618C80.0398 48.2482 81.0153 48.8642 82.112 49.3164C83.2251 49.7718 84.3775 49.9979 85.5756 49.9979C86.859 49.9979 88.0637 49.7587 89.1898 49.2705C90.316 48.7888 91.3047 48.1335 92.1591 47.3045C93.0136 48.1302 94.0022 48.7888 95.1284 49.2705C96.2546 49.7587 97.456 49.9979 98.7426 49.9979C99.9375 49.9979 101.093 49.7718 102.206 49.3164C103.316 48.8609 104.301 48.2318 105.156 47.4323C106.01 46.6328 106.688 45.6858 107.186 44.5881C107.212 44.5357 107.235 44.48 107.254 44.4243C107.853 45.617 108.629 46.6295 109.579 47.4552C110.705 48.4415 112.034 49.182 113.576 49.6801C115.111 50.1814 116.781 50.4337 118.575 50.4337C119.289 50.4337 120.166 50.3813 121.204 50.283C122.248 50.1847 123.305 49.8931 124.389 49.4081C124.985 49.1493 125.584 48.8085 126.183 48.3792C126.779 47.9533 127.329 47.4257 127.827 46.7966C128.298 46.2003 128.681 45.5253 128.972 44.7651C129.548 45.8136 130.262 46.7114 131.12 47.4585C132.246 48.4448 133.575 49.1853 135.117 49.6834C136.653 50.1847 138.322 50.437 140.116 50.437C140.833 50.437 141.707 50.3846 142.745 50.2863C143.789 50.188 144.847 49.8963 145.93 49.4114C146.526 49.1525 147.125 48.8118 147.724 48.3825C148.323 47.9566 148.87 47.429 149.368 46.7999C149.869 46.1708 150.268 45.4532 150.566 44.6373C150.867 43.8279 151.014 42.9072 151.014 41.8783C151.014 40.6823 150.752 39.4601 150.225 38.2215C149.695 36.9797 148.88 35.9475 147.764 35.1218C148.733 34.378 149.508 33.4441 150.091 32.3169C150.677 31.1898 150.969 29.9577 150.969 28.6176C150.969 27.6772 150.818 26.7826 150.517 25.9405C150.222 25.1017 149.806 24.3448 149.279 23.6763C148.749 23.0046 148.13 22.4345 147.42 21.9659C146.709 21.4941 145.953 21.1304 145.151 20.8715C144.811 20.0753 144.346 19.3347 143.763 18.6466C143.18 17.9651 142.519 17.3851 141.776 16.9165C141.036 16.4447 140.241 16.0744 139.386 15.8025C138.528 15.5305 137.644 15.3962 136.734 15.3962C135.706 15.3962 134.718 15.5633 133.765 15.8909" fill="white"/>
</mask>
<g mask="url(#mask0_101_27)">
<path d="M151.014 15.3799H0.127808V50.5911H151.014V15.3799Z" fill="url(#paint0_linear_101_27)"/>
</g>
<path d="M145.76 41.8651C145.76 42.5794 145.577 43.1462 145.207 43.5755C144.837 44.0047 144.378 44.339 143.822 44.5814C143.269 44.8239 142.66 44.9877 141.989 45.0762C141.318 45.1581 140.692 45.204 140.096 45.204C137.68 45.204 135.85 44.6535 134.597 43.5558C133.349 42.4581 132.724 40.7575 132.724 38.4475V31.5173C131.811 31.5173 131.041 31.2388 130.416 30.6818C129.787 30.1214 129.476 29.4333 129.476 28.6043C129.476 27.7753 129.787 27.0905 130.416 26.5499C131.041 26.0125 131.814 25.7405 132.724 25.7405V24.4135C132.724 23.899 132.832 23.4141 133.045 22.9586C133.258 22.5032 133.542 22.0968 133.899 21.743C134.256 21.3858 134.675 21.1073 135.16 20.9074C135.644 20.7043 136.171 20.606 136.741 20.606C137.31 20.606 137.798 20.7043 138.28 20.9074C138.764 21.104 139.183 21.3858 139.54 21.743C139.897 22.0968 140.172 22.5032 140.375 22.9586C140.571 23.4141 140.676 23.899 140.676 24.4135V25.7405H142.751C143.573 25.7405 144.264 26.0125 144.83 26.5499C145.393 27.0938 145.675 27.7786 145.675 28.6043C145.675 29.4301 145.393 30.1214 144.83 30.6818C144.264 31.2355 143.573 31.5173 142.751 31.5173H140.676V36.6486C140.676 37.4809 140.872 38.0543 141.268 38.382C141.665 38.7096 142.231 38.8767 142.964 38.8767C143.953 38.8767 144.663 39.1684 145.105 39.7516C145.544 40.3349 145.763 41.0426 145.763 41.8683" fill="white"/>
<path d="M124.216 41.8651C124.216 42.5794 124.032 43.1462 123.662 43.5755C123.292 44.0047 122.831 44.339 122.278 44.5814C121.724 44.8239 121.115 44.9877 120.444 45.0762C119.773 45.1581 119.148 45.204 118.545 45.204C116.136 45.204 114.303 44.6535 113.049 43.5558C111.802 42.4581 111.176 40.7575 111.176 38.4475V31.5173C110.263 31.5173 109.494 31.2388 108.868 30.6818C108.397 30.2623 108.105 29.7708 107.984 29.2007C107.948 29.0074 107.929 28.8108 107.929 28.6043C107.929 27.7786 108.24 27.0905 108.868 26.5499C109.494 26.0125 110.266 25.7405 111.176 25.7405V24.4135C111.176 23.899 111.284 23.4141 111.497 22.9586C111.71 22.5032 111.995 22.0968 112.352 21.743C112.708 21.3858 113.127 21.1073 113.612 20.9074C114.096 20.7043 114.624 20.606 115.193 20.606C115.763 20.606 116.251 20.7043 116.732 20.9074C117.216 21.104 117.635 21.3858 117.992 21.743C118.346 22.0968 118.624 22.5032 118.827 22.9586C119.023 23.4141 119.128 23.899 119.128 24.4135V25.7405H121.204C122.025 25.7405 122.716 26.0125 123.283 26.5499C123.846 27.0938 124.127 27.7786 124.127 28.6043C124.127 29.4301 123.846 30.1214 123.283 30.6818C122.716 31.2355 122.025 31.5173 121.204 31.5173H119.128V36.6486C119.128 37.4809 119.325 38.0543 119.721 38.382C120.114 38.7096 120.683 38.8767 121.417 38.8767C122.405 38.8767 123.116 39.1684 123.558 39.7516C123.996 40.3349 124.216 41.0426 124.216 41.8683" fill="white"/>
<path d="M102.714 32.1072V40.9673C102.714 41.4785 102.606 41.97 102.396 42.4418C102.183 42.9104 101.899 43.3167 101.545 43.6575C101.191 43.9982 100.772 44.2702 100.288 44.4734C99.8066 44.6732 99.2992 44.7748 98.759 44.7748C98.1927 44.7748 97.6656 44.6765 97.1843 44.4734C96.6998 44.2735 96.2841 44.0015 95.9272 43.6575C95.5737 43.3167 95.2921 42.9104 95.0761 42.4418C94.8665 41.97 94.7585 41.4752 94.7585 40.9673V34.7187C94.7585 33.8045 94.5195 33.1 94.0481 32.6019C93.5701 32.1039 92.9645 31.8549 92.2148 31.8549C91.4651 31.8549 90.8726 32.1072 90.339 32.6019C89.8086 33.1 89.5434 33.8078 89.5434 34.7187V40.9673C89.5434 42.0191 89.1571 42.9202 88.3911 43.6607C87.6218 44.4046 86.6822 44.7748 85.5691 44.7748C84.9995 44.7748 84.4724 44.6765 83.9879 44.4734C83.5034 44.2735 83.0844 44.0015 82.7275 43.6575C82.3707 43.3167 82.0859 42.9104 81.8731 42.4418C81.6603 41.97 81.5522 41.4752 81.5522 40.9673V29.0271C81.5522 27.9425 81.9385 27.0578 82.7046 26.3763C83.4739 25.6882 84.4299 25.3474 85.5659 25.3474C86.7018 25.3474 87.5334 25.639 88.2143 26.2222C88.9018 26.8088 89.3863 27.6443 89.6678 28.7256C90.3815 27.8409 91.272 27.0349 92.3425 26.3074C93.4097 25.58 94.6308 25.2163 95.9993 25.2163C98.0781 25.2163 99.7149 25.829 100.913 27.0545C101.738 27.8999 102.278 28.9583 102.537 30.2329C102.651 30.8129 102.71 31.4387 102.71 32.1039" fill="white"/>
<path d="M76.3404 40.9673V41.1803C76.3404 42.3763 75.941 43.3691 75.1455 44.1523C74.35 44.9387 73.3613 45.3286 72.1959 45.3286C71.3414 45.3286 70.5557 45.0861 69.8453 44.6012C69.1316 44.1162 68.5882 43.474 68.2183 42.6778C67.4489 43.4478 66.5781 44.0572 65.6091 44.516C64.6401 44.9714 63.5434 45.2041 62.319 45.2041C60.4366 45.2041 58.8947 44.7028 57.6834 43.7066C56.4721 42.7073 55.8665 41.2655 55.8665 39.3814C55.8665 37.4973 56.5408 36.0556 57.8962 35.0398C59.2482 34.0273 61.0782 33.5227 63.3862 33.5227C63.8118 33.5227 64.2603 33.5424 64.735 33.585C65.2032 33.6308 65.668 33.6931 66.1231 33.7783C66.5781 33.8635 67.0135 33.9585 67.4293 34.0568C67.8418 34.1551 68.1757 34.2632 68.4311 34.3779V33.6898C68.4311 32.6937 68.1201 31.9434 67.4915 31.4453C66.8629 30.9472 65.8415 30.6982 64.4142 30.6982C63.7856 30.6982 63.1603 30.7474 62.5318 30.8457C61.9032 30.9472 61.2223 30.9964 60.4792 30.9964C59.736 30.9964 59.0813 30.767 58.5149 30.3083C57.9453 29.8528 57.6605 29.2565 57.6605 28.5127C57.6605 27.9982 57.8274 27.5133 58.1712 27.0578C58.5149 26.6024 58.9569 26.3075 59.497 26.16C60.4104 25.9306 61.3893 25.7439 62.4467 25.5997C63.5008 25.4588 64.6401 25.3867 65.8677 25.3867C67.9465 25.3867 69.6554 25.5866 70.9977 25.9863C72.3366 26.3861 73.4333 27.0021 74.2878 27.8278C75.0276 28.5684 75.5514 29.4105 75.869 30.3509C76.18 31.2913 76.3371 32.4611 76.3371 33.8569V40.9608L76.3404 40.9673ZM68.4769 37.7562V36.7732C68.1593 36.6585 67.8123 36.5635 67.4293 36.4947C67.043 36.4259 66.6665 36.3865 66.2966 36.3865C65.3832 36.3865 64.6957 36.6225 64.221 37.0943C63.7529 37.5629 63.5139 38.1265 63.5139 38.7851C63.5139 39.4961 63.7234 40.0466 64.1326 40.43C64.5484 40.8166 65.0526 41.0099 65.6517 41.0099C66.4472 41.0099 67.1183 40.7183 67.6617 40.1351C68.2052 39.5453 68.4736 38.7589 68.4736 37.7595" fill="white"/>
<path d="M50.6514 29.3776C50.6514 29.8625 50.5761 30.3049 50.4386 30.7046L45.7343 41.6848C45.2792 42.6842 44.6016 43.4968 43.7046 44.1259C42.8043 44.755 41.8156 45.0729 40.732 45.0729C39.6484 45.0729 38.6335 44.7649 37.6743 44.1488C36.7217 43.5361 36.0309 42.6842 35.6053 41.5996L31.0745 30.6227C30.901 30.1902 30.8159 29.7806 30.8159 29.3776C30.8159 28.9221 30.9108 28.4732 31.0909 28.0308C31.2775 27.5885 31.5394 27.192 31.8831 26.8512C32.2236 26.5105 32.6262 26.2352 33.0977 26.0386C33.5658 25.8355 34.07 25.7372 34.6101 25.7372C35.4646 25.7372 36.2241 25.9633 36.8952 26.4187C37.5598 26.8742 38.0083 27.4738 38.2374 28.2143L40.7975 36.0456C41.138 34.961 41.5504 33.7355 42.0186 32.3659C42.49 30.9962 42.968 29.6102 43.4558 28.2143C43.6816 27.5033 44.1171 26.9102 44.762 26.4384C45.4036 25.9698 46.137 25.7339 46.9685 25.7339C47.4825 25.7339 47.9637 25.8322 48.4024 26.0353C48.8443 26.2319 49.2405 26.5072 49.5809 26.848C49.9214 27.1887 50.1898 27.5852 50.3732 28.0276C50.5565 28.4699 50.6514 28.9188 50.6514 29.3743" fill="white"/>
<path d="M25.4731 32.3659C25.5582 32.6772 25.604 32.9623 25.604 33.2211C25.604 34.25 25.2308 35.1151 24.491 35.8327C23.7478 36.5437 22.8508 36.9009 21.7967 36.9009H12.735C13.0754 37.9002 13.6189 38.6572 14.3587 39.165C15.1019 39.6795 15.9432 39.9383 16.8861 39.9383C17.3149 39.9383 17.7176 39.8892 18.1006 39.7876C18.4869 39.6893 18.9191 39.5255 19.4036 39.2994L20.3431 38.7391C20.5428 38.6572 20.7589 38.5916 20.9881 38.549C21.2139 38.5031 21.4267 38.4835 21.6297 38.4835C22.0291 38.4835 22.4089 38.5687 22.7853 38.7391C23.1553 38.9127 23.4663 39.1552 23.7249 39.4665C23.8657 39.6959 23.9999 39.9613 24.1276 40.2595C24.2585 40.5609 24.3207 40.8361 24.3207 41.095C24.3207 41.4653 24.2356 41.8257 24.0654 42.1829C23.8919 42.54 23.6201 42.8448 23.2535 43.1036C22.399 43.7622 21.4005 44.2701 20.2646 44.6469C19.122 45.0172 17.7962 45.2007 16.2902 45.2007C14.6632 45.2007 13.1769 44.968 11.8216 44.4929C10.4695 44.0244 9.31717 43.3526 8.35797 42.481C7.40531 41.6094 6.66217 40.5707 6.1351 39.3584C5.60803 38.146 5.34613 36.7993 5.34613 35.3182C5.34613 33.8372 5.60148 32.5232 6.11546 31.2977C6.62944 30.069 7.33984 29.0073 8.24994 28.1062C9.16004 27.2084 10.2371 26.5039 11.4778 25.9895C12.7186 25.4751 14.0772 25.2195 15.5602 25.2195C16.9548 25.2195 18.2086 25.3964 19.3217 25.7536C20.4315 26.1107 21.4005 26.599 22.2255 27.2281C23.0505 27.8572 23.738 28.6141 24.2782 29.4988C24.8216 30.3835 25.2177 31.337 25.4731 32.3626M12.6957 33.7782H18.6801C18.5655 32.6969 18.2283 31.8613 17.675 31.2748C17.1218 30.6915 16.4277 30.3999 15.5995 30.3999C14.8302 30.3999 14.1918 30.7014 13.6778 31.301C13.1638 31.8974 12.8364 32.7264 12.6957 33.7815" fill="white"/>
<mask id="mask1_101_27" style="mask-type:luminance" maskUnits="userSpaceOnUse" x="147" y="15" width="36" height="36">
<path d="M147.629 28.6436C145.289 38.1787 151.116 47.8122 160.642 50.155C170.172 52.4978 179.794 46.6653 182.135 37.1302C184.475 27.5951 178.648 17.9616 169.121 15.6188C167.697 15.2682 166.273 15.1011 164.869 15.1011C156.881 15.1011 149.62 20.5338 147.629 28.6436Z" fill="white"/>
</mask>
<g mask="url(#mask1_101_27)">
<path d="M131.483 21.2023L178.082 0.608398L198.284 46.3967L151.682 66.9907L131.483 21.2023Z" fill="url(#paint1_linear_101_27)"/>
</g>
<mask id="mask2_101_27" style="mask-type:luminance" maskUnits="userSpaceOnUse" x="152" y="15" width="22" height="27">
<path d="M153.133 27.297C151.571 33.6603 155.457 40.0859 161.814 41.6456C166.899 42.8973 172.035 39.7845 173.286 34.6925C174.284 30.6196 171.796 26.5073 167.73 25.508L171.056 16.4315C169.868 16.1399 168.68 15.999 167.511 15.999C160.849 15.999 154.796 20.5274 153.136 27.2937" fill="white"/>
</mask>
<g mask="url(#mask2_101_27)">
<path d="M186.531 34.9743L167.593 5.63818L139.321 23.9253L158.259 53.2615L186.531 34.9743Z" fill="url(#paint2_linear_101_27)"/>
</g>
<path d="M174.939 32.1891C174.896 31.8385 174.877 31.4879 174.792 31.1438C174.51 29.7676 173.934 28.4439 173.06 27.3462C172.192 26.2452 171.069 25.3441 169.802 24.7412C169.478 24.6069 169.157 24.4627 168.827 24.3546L168.326 24.2071L168.074 24.135L167.809 24.0826C167.102 23.922 166.365 23.9057 165.645 23.9679C164.201 24.1055 162.81 24.6757 161.69 25.58C160.564 26.4779 159.719 27.723 159.294 29.0861C159.071 29.748 158.956 30.5246 158.986 31.2618C159.012 32.0056 159.176 32.7429 159.467 33.4211C160.047 34.7777 161.127 35.9114 162.459 36.5242C162.793 36.6716 163.134 36.8027 163.487 36.8911C163.834 36.9894 164.227 37.0419 164.6 37.0583C165.36 37.091 166.119 36.9305 166.804 36.6257C168.182 36.0261 169.226 34.7515 169.557 33.313C169.737 32.5758 169.711 31.7664 169.455 31.0488C169.334 30.6884 169.161 30.3476 168.941 30.0396C168.912 29.997 168.882 29.961 168.853 29.9184C169.39 31.3667 168.994 33.0542 167.737 34.0929C166.44 35.1676 164.633 35.2168 163.301 34.3321C162.594 33.9094 162.044 33.2409 161.762 32.4807C161.608 32.0679 161.526 31.6354 161.526 31.1996C161.53 30.7572 161.598 30.3509 161.765 29.8987C162.076 29.0238 162.639 28.2571 163.369 27.7033C164.096 27.1463 164.987 26.8121 165.887 26.7498C166.339 26.7302 166.794 26.74 167.232 26.8514L167.399 26.8842L167.57 26.9399L167.913 27.0447C168.139 27.1234 168.355 27.2282 168.578 27.3167C169.432 27.7427 170.182 28.3652 170.762 29.1221C171.351 29.8725 171.734 30.7769 171.92 31.7042C171.983 31.9335 171.983 32.1727 172.019 32.4086C172.038 32.6446 172.025 32.8838 172.032 33.1197C172.002 33.3556 171.999 33.5948 171.953 33.8275C171.898 34.0601 171.881 34.2927 171.796 34.5319C171.541 35.4953 171.109 36.4095 170.516 37.2123C169.923 38.0118 169.177 38.6966 168.336 39.234C166.65 40.3186 164.564 40.7249 162.584 40.3677L162.211 40.3022C162.086 40.2825 161.962 40.2334 161.837 40.2006L161.084 39.9843C160.603 39.7845 160.106 39.6206 159.657 39.3552C159.182 39.1357 158.763 38.8211 158.321 38.5426L157.706 38.0544L157.552 37.9331L157.411 37.7955L157.13 37.5235C156.383 36.7896 155.722 35.9507 155.231 35.0136C155.09 34.7908 154.982 34.5483 154.877 34.3058C154.773 34.0634 154.642 33.8307 154.57 33.5719L154.311 32.8182L154.128 32.0417C154.052 31.7861 154.039 31.5174 154 31.2553C153.964 30.9898 153.918 30.7277 153.921 30.459C153.915 30.1936 153.895 29.9249 153.895 29.6562L153.944 28.8534C154.049 27.7951 154.301 26.7138 154.678 25.6751L154.966 24.8985C155.077 24.6462 155.208 24.4037 155.326 24.1514C155.549 23.6402 155.86 23.1815 156.151 22.7097C156.288 22.4672 156.465 22.2509 156.635 22.0314L157.143 21.3662L157.716 20.7535C157.906 20.5471 158.092 20.3374 158.308 20.1604C159.945 18.6335 161.949 17.4375 164.155 16.8084C166.355 16.1661 168.729 16.0318 171.059 16.4217C170.49 16.2808 169.92 16.0941 169.334 15.999C168.748 15.9204 168.159 15.786 167.56 15.786L166.66 15.75C166.362 15.7566 166.06 15.7828 165.759 15.7992C165.154 15.809 164.561 15.9302 163.962 16.022C163.661 16.058 163.369 16.1498 163.075 16.2218C162.78 16.3005 162.486 16.3758 162.194 16.461L161.34 16.7822L160.911 16.9427C160.77 17.0017 160.636 17.0738 160.498 17.1393L159.673 17.5456C159.398 17.68 159.146 17.8602 158.881 18.0142C158.623 18.1813 158.344 18.3222 158.105 18.5155L157.365 19.0726C157.11 19.2495 156.887 19.4658 156.662 19.6755L155.984 20.3111L155.368 21.0091C155.165 21.245 154.949 21.4711 154.779 21.7299C154.416 22.2346 154.033 22.7326 153.741 23.2864C153.588 23.5583 153.424 23.827 153.277 24.1023L152.89 24.9575C152.38 26.101 152.023 27.32 151.826 28.5946L151.718 29.5547C151.702 29.8758 151.705 30.2002 151.699 30.5213C151.682 30.8457 151.715 31.1668 151.744 31.4879C151.78 31.809 151.787 32.1334 151.859 32.4512C152.275 35.0038 153.463 37.4482 155.283 39.329L155.624 39.6796L155.794 39.8565L155.981 40.0171L156.73 40.6528C157.264 41.0296 157.791 41.4294 158.377 41.7243C158.94 42.065 159.556 42.2977 160.161 42.5598C160.472 42.6647 160.786 42.7597 161.101 42.858C161.258 42.9039 161.412 42.9628 161.575 42.9956L162.07 43.0972C164.718 43.6444 167.573 43.1168 169.878 41.6849C171.033 40.9739 172.051 40.0368 172.87 38.9489C173.685 37.8578 174.287 36.6061 174.644 35.2954C174.756 34.9776 174.795 34.6171 174.867 34.2764C174.929 33.929 174.939 33.5751 174.975 33.2278C174.972 32.8739 174.981 32.5233 174.952 32.1727" fill="white"/>
</g>
<defs>
<linearGradient id="paint0_linear_101_27" x1="150.753" y1="33.734" x2="-2.28095" y2="33.734" gradientUnits="userSpaceOnUse">
<stop stop-color="#CE4F57"/>
<stop offset="1" stop-color="#92298D"/>
</linearGradient>
<linearGradient id="paint1_linear_101_27" x1="154.823" y1="38.158" x2="167.171" y2="32.7114" gradientUnits="userSpaceOnUse">
<stop stop-color="#CE4F57"/>
<stop offset="1" stop-color="#92298D"/>
</linearGradient>
<linearGradient id="paint2_linear_101_27" x1="170.05" y1="41.0309" x2="161.867" y2="28.378" gradientUnits="userSpaceOnUse">
<stop stop-color="#F26624"/>
<stop offset="1" stop-color="#92298D"/>
</linearGradient>
<clipPath id="clip0_101_27">
<rect width="198.156" height="66.3823" fill="white" transform="translate(0.127808 0.608398)"/>
</clipPath>
</defs>
</svg>
