<svg width="238" height="47" viewBox="0 0 238 47" fill="none" xmlns="http://www.w3.org/2000/svg">
<mask id="mask0_64_370" style="mask-type:luminance" maskUnits="userSpaceOnUse" x="0" y="0" width="196" height="47">
<path d="M173.597 1.00385C172.355 1.42919 171.229 2.02466 170.208 2.78176C169.187 3.53885 168.303 4.44482 167.546 5.50391C166.78 6.55874 166.223 7.71991 165.849 8.9704C165.428 9.24687 165.028 9.55736 164.65 9.90614C164.25 9.53184 163.812 9.19583 163.353 8.89384C162.422 8.28136 161.448 7.80923 160.406 7.47322C159.964 6.43965 159.36 5.47839 158.603 4.58518C157.846 3.70048 156.983 2.94764 156.021 2.33941C155.06 1.72692 154.027 1.24629 152.913 0.893263C151.803 0.540233 150.655 0.365845 149.473 0.365845C148.137 0.365845 146.853 0.578512 145.615 1.0081C144.374 1.43344 143.247 2.02891 142.226 2.78601C141.21 3.54311 140.321 4.44907 139.564 5.50816C138.799 6.563 138.237 7.72417 137.867 8.97465C137.093 9.48931 136.387 10.1018 135.767 10.8206C135.758 10.8079 135.745 10.7951 135.733 10.7823C134.376 9.39148 132.752 8.30688 130.846 7.53276C128.937 6.7544 126.841 6.36309 124.544 6.36309C123.137 6.36309 121.827 6.52897 120.628 6.86498C119.424 7.19675 118.323 7.62208 117.323 8.14099C116.435 7.62208 115.461 7.21801 114.406 6.92028C113.356 6.6268 112.212 6.47793 110.991 6.47793C109.477 6.47793 107.993 6.74589 106.552 7.28181C105.106 7.82199 103.83 8.58334 102.72 9.58714C102.048 10.1954 101.449 10.8802 100.934 11.6415C98.9268 9.69773 96.6305 8.36642 94.0279 7.64335C91.3828 6.90327 88.5039 6.52897 85.3953 6.52897C83.5071 6.52897 81.7296 6.65232 80.0668 6.89051C78.3956 7.13295 76.8434 7.43494 75.3975 7.80923C74.3259 8.10271 73.3393 8.55782 72.4293 9.17031C71.5235 9.77854 70.7325 10.5101 70.0648 11.365C70.0266 11.4161 69.9841 11.4671 69.9458 11.5182C69.6651 11.1439 69.3504 10.7866 69.0187 10.4463C67.9854 9.39148 66.7521 8.55782 65.3275 7.94959C63.9072 7.33711 62.4018 7.03087 60.8113 7.03087C59.2209 7.03087 57.809 7.30734 56.4567 7.86453C55.1044 8.42172 53.9095 9.18307 52.8803 10.1443C51.8087 9.14479 50.5584 8.37918 49.1339 7.83901C47.7092 7.29883 46.2591 7.03087 44.7793 7.03087C43.1165 7.03087 41.5728 7.34561 40.1482 7.97511C38.7279 8.60461 37.4861 9.44678 36.4358 10.4974C35.8659 11.0673 35.3641 11.6883 34.9346 12.3603C34.2882 11.6713 33.5908 11.0333 32.8339 10.4463C31.1839 9.17031 29.2872 8.16652 27.1397 7.4477C24.9964 6.72888 22.6193 6.36309 20.0337 6.36309C17.1803 6.36309 14.5394 6.87349 12.0942 7.89005C9.64901 8.91085 7.53125 10.306 5.73668 12.0839C3.93785 13.8618 2.53451 15.9629 1.5139 18.3873C0.506052 20.8118 0 23.4318 0 26.2433C0 29.2802 0.557083 32.0109 1.66274 34.4353C2.77266 36.8597 4.26955 38.9141 6.16193 40.5984C8.05006 42.287 10.2699 43.58 12.8257 44.4902C15.3814 45.392 18.1031 45.8513 20.9905 45.8513C23.6144 45.8513 26.017 45.5025 28.1773 44.822C30.3419 44.1372 32.3193 43.1462 34.0926 41.8489C35.4279 40.8876 36.44 39.6797 37.1459 38.2421C37.8519 36.7959 38.2006 35.2945 38.2006 33.742C38.2006 33.4698 38.1878 33.2018 38.1623 32.9381L39.8123 36.9065C40.3651 38.2421 41.0965 39.45 42.0066 40.5474C42.9124 41.6362 43.9287 42.5635 45.0599 43.3248C46.1911 44.0819 47.4116 44.6689 48.7256 45.073C50.0396 45.477 51.3834 45.6812 52.7485 45.6812C54.1136 45.6812 55.5169 45.4685 56.8309 45.0474C58.145 44.6221 59.3485 44.0266 60.4414 43.2695C61.53 42.5082 62.5123 41.598 63.3799 40.5474C64.2474 39.4925 64.9448 38.3526 65.4679 37.1319L66.1185 35.6007C66.3141 36.3791 66.582 37.1107 66.9095 37.7954C67.7642 39.5776 68.8997 41.0663 70.3243 42.2657C71.7489 43.4694 73.3691 44.3669 75.1849 44.9624C77.0007 45.5536 78.8676 45.8556 80.794 45.8556C82.091 45.8556 83.303 45.7322 84.4342 45.494C85.5611 45.2559 86.6285 44.9283 87.6236 44.5243C88.5166 45.0049 89.4522 45.3835 90.4558 45.6599C91.4551 45.9364 92.5098 46.0768 93.6197 46.0768C95.2824 46.0768 96.8601 45.762 98.34 45.1325C99.8199 44.503 101.113 43.6353 102.223 42.5252C102.393 42.3551 102.554 42.1849 102.707 42.0063C103.805 43.0271 105.072 43.8267 106.496 44.4137C107.942 45.0049 109.439 45.2984 110.996 45.2984C112.663 45.2984 114.227 44.9879 115.69 44.3541C117.153 43.7289 118.437 42.8782 119.547 41.8021C120.657 42.874 121.942 43.7289 123.404 44.3541C124.867 44.9879 126.428 45.2984 128.099 45.2984C129.651 45.2984 131.153 45.0049 132.598 44.4137C134.04 43.8225 135.32 43.0058 136.43 41.968C137.54 40.9302 138.42 39.701 139.067 38.2761C139.101 38.208 139.13 38.1357 139.156 38.0634C139.934 39.6116 140.942 40.9259 142.175 41.9978C143.638 43.278 145.365 44.2393 147.368 44.8858C149.362 45.5366 151.531 45.8641 153.861 45.8641C154.788 45.8641 155.928 45.796 157.276 45.6684C158.633 45.5408 160.006 45.1623 161.414 44.5328C162.188 44.1968 162.966 43.7544 163.744 43.1972C164.518 42.6443 165.232 41.9595 165.879 41.1429C166.491 40.3687 166.989 39.4925 167.367 38.5058C168.116 39.8668 169.043 41.0323 170.157 42.002C171.62 43.2823 173.346 44.2436 175.349 44.8901C177.344 45.5408 179.512 45.8683 181.843 45.8683C182.774 45.8683 183.91 45.8003 185.258 45.6727C186.614 45.5451 187.988 45.1665 189.395 44.537C190.169 44.201 190.948 43.7587 191.726 43.2015C192.504 42.6485 193.214 41.9637 193.861 41.1471C194.511 40.3305 195.03 39.399 195.417 38.3399C195.808 37.2893 196 36.0941 196 34.7585C196 33.2061 195.659 31.6196 194.975 30.0118C194.286 28.3998 193.227 27.06 191.777 25.9881C193.036 25.0226 194.043 23.8104 194.8 22.3472C195.562 20.8841 195.94 19.2848 195.94 17.5452C195.94 16.3245 195.744 15.1633 195.353 14.0702C194.97 12.9813 194.43 11.9988 193.746 11.1311C193.057 10.2592 192.253 9.51908 191.33 8.91085C190.407 8.29837 189.425 7.82625 188.383 7.49023C187.941 6.45666 187.337 5.4954 186.58 4.6022C185.823 3.7175 184.964 2.96465 183.999 2.35642C183.038 1.74393 182.004 1.2633 180.895 0.910275C179.78 0.557246 178.632 0.382859 177.45 0.382859C176.115 0.382859 174.83 0.599779 173.593 1.02512" fill="white"/>
</mask>
<g mask="url(#mask0_64_370)">
<path d="M196 0.361694H0V46.0683H196V0.361694Z" fill="url(#paint0_linear_64_370)"/>
</g>
<path d="M189.174 34.7415C189.174 35.6687 188.936 36.4045 188.455 36.9617C187.975 37.5189 187.38 37.9527 186.657 38.2675C185.938 38.5822 185.147 38.7949 184.275 38.9098C183.403 39.0161 182.591 39.0756 181.817 39.0756C178.679 39.0756 176.302 38.3611 174.673 36.9362C173.053 35.5113 172.24 33.3038 172.24 30.3052V21.3093C171.054 21.3093 170.055 20.9478 169.242 20.2247C168.426 19.4974 168.022 18.6042 168.022 17.5281C168.022 16.452 168.426 15.563 169.242 14.8612C170.055 14.1637 171.058 13.8107 172.24 13.8107V12.088C172.24 11.4203 172.381 10.7908 172.657 10.1995C172.934 9.60833 173.304 9.08091 173.767 8.62155C174.231 8.15793 174.775 7.7964 175.404 7.53694C176.034 7.27323 176.718 7.14563 177.458 7.14563C178.198 7.14563 178.832 7.27323 179.457 7.53694C180.086 7.79214 180.631 8.15793 181.094 8.62155C181.558 9.08091 181.915 9.60833 182.179 10.1995C182.434 10.7908 182.57 11.4203 182.57 12.088V13.8107H185.266C186.333 13.8107 187.231 14.1637 187.966 14.8612C188.698 15.5673 189.064 16.4562 189.064 17.5281C189.064 18.5999 188.698 19.4974 187.966 20.2247C187.231 20.9435 186.333 21.3093 185.266 21.3093H182.57V27.9701C182.57 29.0505 182.825 29.7948 183.34 30.2201C183.854 30.6455 184.59 30.8624 185.542 30.8624C186.827 30.8624 187.75 31.2409 188.324 31.998C188.893 32.7551 189.178 33.6739 189.178 34.7457" fill="white"/>
<path d="M161.188 34.7415C161.188 35.6687 160.95 36.4045 160.469 36.9617C159.989 37.5189 159.389 37.9527 158.671 38.2675C157.952 38.5822 157.161 38.7949 156.289 38.9098C155.417 39.0161 154.605 39.0756 153.823 39.0756C150.693 39.0756 148.311 38.3611 146.683 36.9362C145.062 35.5113 144.25 33.3038 144.25 30.3052V21.3093C143.064 21.3093 142.064 20.9478 141.252 20.2247C140.64 19.6803 140.261 19.0423 140.104 18.3022C140.057 18.0513 140.032 17.7961 140.032 17.5281C140.032 16.4562 140.436 15.563 141.252 14.8612C142.064 14.1637 143.068 13.8107 144.25 13.8107V12.088C144.25 11.4203 144.391 10.7908 144.667 10.1995C144.943 9.60833 145.313 9.08091 145.777 8.62155C146.24 8.15793 146.785 7.7964 147.414 7.53694C148.044 7.27323 148.728 7.14563 149.468 7.14563C150.208 7.14563 150.842 7.27323 151.467 7.53694C152.096 7.79214 152.641 8.15793 153.104 8.62155C153.563 9.08091 153.925 9.60833 154.188 10.1995C154.444 10.7908 154.58 11.4203 154.58 12.088V13.8107H157.276C158.343 13.8107 159.24 14.1637 159.976 14.8612C160.708 15.5673 161.073 16.4562 161.073 17.5281C161.073 18.5999 160.708 19.4974 159.976 20.2247C159.24 20.9435 158.343 21.3093 157.276 21.3093H154.58V27.9701C154.58 29.0505 154.835 29.7948 155.349 30.2201C155.86 30.6455 156.6 30.8624 157.552 30.8624C158.836 30.8624 159.759 31.2409 160.333 31.998C160.903 32.7551 161.188 33.6739 161.188 34.7457" fill="white"/>
<path d="M133.257 22.075V33.576C133.257 34.2396 133.117 34.8776 132.845 35.4901C132.569 36.0983 132.199 36.6257 131.739 37.0681C131.28 37.5104 130.736 37.8634 130.106 38.1271C129.481 38.3866 128.822 38.5185 128.12 38.5185C127.385 38.5185 126.7 38.3909 126.075 38.1271C125.446 37.8677 124.905 37.5147 124.442 37.0681C123.983 36.6257 123.617 36.0983 123.336 35.4901C123.064 34.8776 122.924 34.2353 122.924 33.576V25.4649C122.924 24.2782 122.613 23.3637 122.001 22.7172C121.38 22.0707 120.593 21.7474 119.62 21.7474C118.646 21.7474 117.876 22.075 117.183 22.7172C116.494 23.3637 116.149 24.2824 116.149 25.4649V33.576C116.149 34.9414 115.648 36.1111 114.653 37.0723C113.653 38.0378 112.433 38.5185 110.987 38.5185C110.247 38.5185 109.562 38.3909 108.933 38.1271C108.304 37.8677 107.759 37.5147 107.296 37.0681C106.832 36.6257 106.462 36.0983 106.186 35.4901C105.909 34.8776 105.769 34.2353 105.769 33.576V18.0768C105.769 16.6689 106.271 15.5205 107.266 14.6358C108.265 13.7426 109.507 13.3003 110.983 13.3003C112.458 13.3003 113.538 13.6788 114.423 14.4359C115.316 15.1973 115.945 16.2819 116.311 17.6855C117.238 16.5371 118.395 15.4907 119.785 14.5465C121.172 13.6023 122.758 13.1301 124.536 13.1301C127.236 13.1301 129.362 13.9255 130.919 15.5163C131.99 16.6136 132.692 17.9875 133.028 19.642C133.177 20.3949 133.253 21.2073 133.253 22.0707" fill="white"/>
<path d="M98.9992 33.5761V33.8525C98.9992 35.405 98.4804 36.6938 97.447 37.7103C96.4137 38.7311 95.1294 39.2373 93.6155 39.2373C92.5056 39.2373 91.485 38.9225 90.5622 38.293C89.6351 37.6635 88.9292 36.8299 88.4486 35.7963C87.4493 36.7959 86.3181 37.587 85.0594 38.1825C83.8006 38.7737 82.376 39.0757 80.7856 39.0757C78.3404 39.0757 76.3374 38.4249 74.764 37.1319C73.1905 35.8346 72.4038 33.9631 72.4038 31.5174C72.4038 29.0718 73.2798 27.2003 75.0404 25.8817C76.7967 24.5674 79.1739 23.9124 82.1719 23.9124C82.7247 23.9124 83.3073 23.9379 83.9239 23.9932C84.5321 24.0528 85.1359 24.1336 85.727 24.2442C86.3181 24.3548 86.8837 24.4781 87.4238 24.6057C87.9596 24.7333 88.3934 24.8737 88.7251 25.0225V24.1293C88.7251 22.8363 88.3211 21.8623 87.5046 21.2158C86.6881 20.5693 85.3613 20.246 83.5072 20.246C82.6907 20.246 81.8785 20.3098 81.062 20.4374C80.2455 20.5693 79.361 20.6331 78.3956 20.6331C77.4303 20.6331 76.5798 20.3353 75.8441 19.7399C75.1042 19.1487 74.7342 18.3745 74.7342 17.409C74.7342 16.7413 74.9511 16.1118 75.3976 15.5205C75.8441 14.9293 76.4182 14.5465 77.1199 14.3551C78.3063 14.0574 79.5778 13.8149 80.9514 13.6278C82.3207 13.4449 83.8006 13.3513 85.3953 13.3513C88.0957 13.3513 90.3155 13.6108 92.0591 14.1297C93.7983 14.6486 95.2229 15.4482 96.3329 16.5201C97.2939 17.4813 97.9743 18.5744 98.3868 19.7952C98.7908 21.0159 98.9949 22.5343 98.9949 24.3463V33.5676L98.9992 33.5761ZM88.7846 29.4078V28.1318C88.3721 27.9829 87.9213 27.8595 87.4238 27.7702C86.922 27.6809 86.4329 27.6299 85.9524 27.6299C84.7659 27.6299 83.8729 27.9361 83.2563 28.5486C82.6482 29.1568 82.3377 29.8884 82.3377 30.7433C82.3377 31.6663 82.6099 32.3809 83.1415 32.8785C83.6815 33.3804 84.3364 33.6314 85.1147 33.6314C86.148 33.6314 87.0198 33.2528 87.7257 32.4957C88.4316 31.7301 88.7803 30.7093 88.7803 29.412" fill="white"/>
<path d="M65.6294 18.5319C65.6294 19.1614 65.5316 19.7356 65.353 20.2545L59.2421 34.5075C58.651 35.8048 57.7707 36.8596 56.6055 37.6763C55.4361 38.4929 54.1518 38.9055 52.7442 38.9055C51.3366 38.9055 50.0183 38.5057 48.7724 37.706C47.5349 36.9107 46.6376 35.8048 46.0847 34.3969L40.1992 20.1481C39.9738 19.5867 39.8633 19.055 39.8633 18.5319C39.8633 17.9406 39.9866 17.3579 40.2205 16.7837C40.4629 16.2095 40.8031 15.6949 41.2496 15.2525C41.6919 14.8102 42.2149 14.4529 42.8273 14.1977C43.4354 13.934 44.0903 13.8064 44.792 13.8064C45.9019 13.8064 46.8885 14.0999 47.7602 14.6911C48.6235 15.2823 49.2061 16.0607 49.5038 17.0219L52.8293 27.1875C53.2715 25.7796 53.8074 24.1888 54.4155 22.4109C55.0278 20.633 55.6487 18.8339 56.2823 17.0219C56.5758 16.0989 57.1414 15.3291 57.9791 14.7166C58.8126 14.1084 59.7652 13.8021 60.8453 13.8021C61.513 13.8021 62.1381 13.9297 62.7079 14.1934C63.282 14.4486 63.7966 14.8059 64.2388 15.2483C64.6811 15.6906 65.0298 16.2053 65.268 16.7795C65.5061 17.3537 65.6294 17.9364 65.6294 18.5276" fill="white"/>
<path d="M32.9229 22.411C33.0335 22.8151 33.093 23.1851 33.093 23.5211C33.093 24.8567 32.6083 25.9796 31.6472 26.911C30.6819 27.834 29.5167 28.2976 28.1473 28.2976H16.3763C16.8186 29.5949 17.5245 30.5774 18.4856 31.2367C19.4509 31.9045 20.5438 32.2405 21.7685 32.2405C22.3256 32.2405 22.8487 32.1767 23.3462 32.0449C23.848 31.9173 24.4094 31.7046 25.0387 31.4111L26.2592 30.6838C26.5186 30.5774 26.7993 30.4924 27.097 30.4371C27.3904 30.3775 27.6668 30.352 27.9305 30.352C28.4493 30.352 28.9426 30.4626 29.4316 30.6838C29.9121 30.9092 30.3161 31.224 30.6521 31.628C30.8349 31.9258 31.0093 32.2703 31.1751 32.6573C31.3452 33.0487 31.4261 33.4059 31.4261 33.742C31.4261 34.2226 31.3155 34.6905 31.0944 35.1541C30.869 35.6177 30.516 36.0133 30.0397 36.3493C28.9298 37.2042 27.6328 37.8635 26.1572 38.3526C24.673 38.8332 22.9507 39.0714 20.9946 39.0714C18.8811 39.0714 16.9504 38.7694 15.1898 38.1527C13.4335 37.5445 11.9367 36.6725 10.6907 35.5411C9.45317 34.4097 8.48784 33.0614 7.80318 31.4877C7.11852 29.9139 6.77832 28.1658 6.77832 26.2433C6.77832 24.3207 7.11002 22.6152 7.77767 21.0244C8.44532 19.4294 9.36812 18.0513 10.5503 16.8816C11.7325 15.7162 13.1316 14.8017 14.7433 14.1339C16.355 13.4662 18.1198 13.1344 20.0462 13.1344C21.8578 13.1344 23.4866 13.3641 24.9324 13.8277C26.374 14.2913 27.6328 14.9251 28.7044 15.7417C29.7761 16.5584 30.6691 17.5409 31.3708 18.6893C32.0767 19.8377 32.5912 21.0754 32.9229 22.4067M16.3253 24.2442H24.0989C23.9501 22.8406 23.5121 21.756 22.7934 20.9946C22.0747 20.2375 21.1732 19.859 20.0973 19.859C19.0979 19.859 18.2687 20.2503 17.601 21.0286C16.9334 21.8028 16.5081 22.8789 16.3253 24.2484" fill="white"/>
<mask id="mask1_64_370" style="mask-type:luminance" maskUnits="userSpaceOnUse" x="190" y="0" width="48" height="47">
<path d="M191.602 17.5792C188.562 29.9564 196.131 42.4613 208.506 45.5025C220.885 48.5437 233.384 40.9727 236.424 28.5954C239.465 16.2181 231.895 3.71319 219.52 0.672032C217.67 0.216922 215.821 0 213.996 0C203.62 0 194.188 7.05208 191.602 17.5792Z" fill="white"/>
</mask>
<g mask="url(#mask1_64_370)">
<path d="M170.629 7.91977L231.16 -18.8126L257.402 40.6239L196.867 67.3563L170.629 7.91977Z" fill="url(#paint1_linear_64_370)"/>
</g>
<mask id="mask2_64_370" style="mask-type:luminance" maskUnits="userSpaceOnUse" x="198" y="1" width="28" height="34">
<path d="M198.751 15.831C196.722 24.091 201.77 32.4319 210.029 34.4565C216.633 36.0813 223.305 32.0406 224.93 25.4308C226.227 20.1439 222.995 14.8059 217.713 13.5087L222.034 1.72685C220.49 1.3483 218.946 1.16541 217.428 1.16541C208.774 1.16541 200.911 7.04356 198.755 15.8268" fill="white"/>
</mask>
<g mask="url(#mask2_64_370)">
<path d="M242.135 25.7967L217.535 -12.2837L180.81 11.4543L205.411 49.5347L242.135 25.7967Z" fill="url(#paint2_linear_64_370)"/>
</g>
<path d="M227.077 22.1813C227.022 21.7262 226.996 21.2711 226.886 20.8245C226.52 19.0381 225.772 17.3197 224.636 15.8948C223.509 14.4657 222.051 13.296 220.405 12.5134C219.984 12.339 219.567 12.1519 219.138 12.0115L218.487 11.8201L218.16 11.7265L217.815 11.6585C216.897 11.4501 215.94 11.4288 215.004 11.5096C213.129 11.6882 211.322 12.4283 209.867 13.6023C208.404 14.7677 207.307 16.384 206.754 18.1534C206.465 19.0125 206.316 20.0206 206.355 20.9776C206.389 21.9431 206.601 22.9001 206.98 23.7806C207.732 25.5414 209.136 27.0131 210.867 27.8085C211.3 27.9999 211.743 28.17 212.202 28.2849C212.653 28.4125 213.163 28.4805 213.648 28.5018C214.634 28.5443 215.621 28.3359 216.51 27.9403C218.3 27.162 219.657 25.5074 220.086 23.6402C220.32 22.6832 220.286 21.6326 219.954 20.7011C219.797 20.2333 219.572 19.7909 219.287 19.3911C219.248 19.3358 219.21 19.289 219.172 19.2337C219.869 21.1137 219.355 23.3042 217.722 24.6525C216.038 26.0476 213.69 26.1114 211.959 24.963C211.041 24.4143 210.327 23.5466 209.961 22.5598C209.761 22.0239 209.655 21.4625 209.655 20.8968C209.659 20.3226 209.748 19.7952 209.965 19.2082C210.369 18.0725 211.1 17.0773 212.049 16.3584C212.993 15.6354 214.15 15.2015 215.319 15.1207C215.906 15.0952 216.497 15.1079 217.067 15.2526L217.284 15.2951L217.505 15.3674L217.951 15.5035C218.245 15.6056 218.525 15.7417 218.815 15.8565C219.925 16.4095 220.898 17.2176 221.651 18.2001C222.416 19.1742 222.914 20.3481 223.156 21.5518C223.237 21.8495 223.237 22.16 223.284 22.4663C223.31 22.7725 223.293 23.083 223.301 23.3892C223.263 23.6955 223.258 24.006 223.199 24.308C223.127 24.61 223.105 24.912 222.995 25.2224C222.663 26.4729 222.102 27.6596 221.332 28.7017C220.562 29.7395 219.593 30.6285 218.5 31.326C216.31 32.7339 213.601 33.2613 211.028 32.7977L210.543 32.7126C210.382 32.6871 210.22 32.6233 210.059 32.5808L209.081 32.3C208.455 32.0406 207.809 31.8279 207.226 31.4834C206.61 31.1984 206.065 30.7901 205.491 30.4286L204.692 29.7948L204.492 29.6374L204.309 29.4588L203.943 29.1058C202.974 28.153 202.115 27.0642 201.477 25.8477C201.294 25.5585 201.154 25.2437 201.018 24.929C200.882 24.6142 200.712 24.3122 200.618 23.9762L200.282 22.9979L200.044 21.9899C199.946 21.6581 199.929 21.3094 199.878 20.9691C199.831 20.6246 199.772 20.2843 199.776 19.9355C199.767 19.591 199.742 19.2422 199.742 18.8934L199.806 17.8514C199.942 16.4775 200.269 15.0739 200.758 13.7256L201.133 12.7176C201.277 12.39 201.447 12.0753 201.6 11.7478C201.889 11.0843 202.293 10.4888 202.672 9.87631C202.851 9.56156 203.08 9.28084 203.301 8.99586L203.96 8.13243L204.705 7.33705C204.951 7.06909 205.194 6.79687 205.474 6.56719C207.601 4.58512 210.203 3.03265 213.069 2.216C215.927 1.38234 219.01 1.20795 222.038 1.7141C221.298 1.53121 220.558 1.28877 219.797 1.16542C219.036 1.06334 218.27 0.88895 217.492 0.88895L216.323 0.842163C215.936 0.85067 215.544 0.884697 215.153 0.905964C214.366 0.918724 213.597 1.0761 212.819 1.19519C212.427 1.24198 212.049 1.36107 211.666 1.45465C211.283 1.55673 210.901 1.65456 210.522 1.76514L209.412 2.18197L208.855 2.39039C208.672 2.46695 208.498 2.56052 208.319 2.64559L207.248 3.17301C206.89 3.34739 206.563 3.58133 206.219 3.78124C205.883 3.99816 205.521 4.18106 205.211 4.432L204.25 5.15507C203.918 5.38476 203.629 5.66548 203.335 5.93769L202.455 6.76285L201.656 7.66881C201.392 7.97505 201.111 8.26854 200.89 8.60455C200.418 9.25957 199.921 9.90608 199.542 10.6249C199.342 10.9779 199.13 11.3267 198.938 11.684L198.436 12.7941C197.773 14.2785 197.31 15.8608 197.054 17.5154L196.914 18.7616C196.893 19.1784 196.897 19.5995 196.888 20.0163C196.867 20.4374 196.91 20.8542 196.948 21.2711C196.995 21.6879 197.003 22.109 197.097 22.5216C197.637 25.8349 199.181 29.0079 201.545 31.4494L201.987 31.9045L202.208 32.1342L202.451 32.3426L203.425 33.1677C204.118 33.6569 204.802 34.1758 205.564 34.5586C206.295 35.0009 207.095 35.3029 207.881 35.6432C208.285 35.7793 208.694 35.9026 209.102 36.0302C209.306 36.0898 209.506 36.1664 209.718 36.2089L210.361 36.3407C213.801 37.0511 217.509 36.3663 220.503 34.5075C222.004 33.5846 223.327 32.3681 224.39 30.956C225.449 29.5396 226.231 27.9148 226.695 26.2135C226.839 25.8009 226.89 25.333 226.984 24.8907C227.065 24.4398 227.077 23.9805 227.124 23.5296C227.12 23.0702 227.133 22.6151 227.094 22.16" fill="white"/>
<defs>
<linearGradient id="paint0_linear_64_370" x1="195.66" y1="24.1867" x2="-3.12894" y2="24.1867" gradientUnits="userSpaceOnUse">
<stop stop-color="#CE4F57"/>
<stop offset="1" stop-color="#92298D"/>
</linearGradient>
<linearGradient id="paint1_linear_64_370" x1="200.946" y1="29.9294" x2="216.983" y2="22.851" gradientUnits="userSpaceOnUse">
<stop stop-color="#CE4F57"/>
<stop offset="1" stop-color="#92298D"/>
</linearGradient>
<linearGradient id="paint2_linear_64_370" x1="220.727" y1="33.6586" x2="210.107" y2="17.2273" gradientUnits="userSpaceOnUse">
<stop stop-color="#F26624"/>
<stop offset="1" stop-color="#92298D"/>
</linearGradient>
</defs>
</svg>
