<svg width="96" height="97" viewBox="0 0 96 97" fill="none" xmlns="http://www.w3.org/2000/svg">
<g clip-path="url(#clip0_64_555)">
<g opacity="0.1">
<path d="M30.5117 44.798C28.1637 44.122 25.8157 43.779 23.5317 43.779C20.0047 43.779 17.0617 44.585 14.7797 45.572C16.9797 37.518 22.2647 23.621 32.7927 22.056C33.7677 21.911 34.5667 21.206 34.8327 20.257L37.1337 12.027C37.3277 11.331 37.2127 10.586 36.8157 9.98204C36.4187 9.37804 35.7807 8.97504 35.0657 8.87704C34.2887 8.77104 33.4967 8.71704 32.7117 8.71704C20.0747 8.71704 7.55972 21.907 2.27872 40.793C-0.821281 51.873 -1.73028 68.531 5.90572 79.016C10.1787 84.883 16.4127 88.016 24.4347 88.329C24.4677 88.33 24.4997 88.331 24.5327 88.331C34.4307 88.331 43.2077 81.665 45.8777 72.122C47.4727 66.417 46.7517 60.434 43.8457 55.271C40.9707 50.166 36.2357 46.445 30.5117 44.798Z" fill="#F16623"/>
<path d="M92.4708 55.272C89.5958 50.166 84.8608 46.445 79.1368 44.798C76.7888 44.122 74.4408 43.779 72.1578 43.779C68.6308 43.779 65.6868 44.585 63.4048 45.572C65.6048 37.518 70.8898 23.621 81.4188 22.056C82.3938 21.911 83.1918 21.206 83.4588 20.257L85.7598 12.027C85.9538 11.331 85.8388 10.586 85.4418 9.98204C85.0458 9.37804 84.4078 8.97504 83.6918 8.87704C82.9158 8.77104 82.1238 8.71704 81.3378 8.71704C68.7008 8.71704 56.1858 21.907 50.9038 40.793C47.8048 51.873 46.8958 68.531 54.5328 79.018C58.8048 84.884 65.0398 88.018 73.0608 88.33C73.0938 88.331 73.1258 88.332 73.1598 88.332C83.0568 88.332 91.8348 81.666 94.5048 72.123C96.0978 66.418 95.3758 60.434 92.4708 55.272Z" fill="#F16623"/>
</g>
</g>
<defs>
<clipPath id="clip0_64_555">
<rect width="95.333" height="95.332" fill="white" transform="translate(0 0.858643)"/>
</clipPath>
</defs>
</svg>
