<svg width="128" height="110" viewBox="0 0 128 110" fill="none" xmlns="http://www.w3.org/2000/svg">
<path d="M63.9989 17.2215C65.3794 17.2215 66.4989 16.1344 66.4989 14.7939V2.42761C66.4989 1.08708 65.3796 0 63.9989 0C62.6181 0 61.4989 1.08684 61.4989 2.42761V14.7939C61.4991 16.1344 62.6184 17.2215 63.9989 17.2215Z" fill="#0E121B" fill-opacity="0.5"/>
<path d="M45.2031 21.2093C45.6784 21.9417 46.4901 22.3428 47.3204 22.3428C47.7759 22.3428 48.2371 22.2219 48.6509 21.9687C49.8189 21.254 50.1689 19.7549 49.4329 18.6205L42.7719 8.35779C42.0356 7.22361 40.4919 6.88351 39.3241 7.59844C38.1561 8.31313 37.8061 9.81217 38.5421 10.9466L45.2031 21.2093Z" fill="#0E121B" fill-opacity="0.5"/>
<path d="M79.3551 21.9694C79.7689 22.2222 80.2296 22.3428 80.6846 22.3428C81.5151 22.3428 82.3274 21.9413 82.8026 21.2084L89.4566 10.9457C90.1921 9.81101 89.8414 8.31245 88.6729 7.59776C87.5039 6.8838 85.9611 7.22464 85.2254 8.35882L78.5714 18.6215C77.8359 19.7564 78.1869 21.255 79.3551 21.9694Z" fill="#0E121B" fill-opacity="0.5"/>
<path d="M127.194 57.1522L122.85 49.7007C122.17 48.5335 120.644 48.1232 119.444 48.784C118.242 49.4446 117.819 50.9256 118.5 52.0921L122.841 59.5405C123.059 59.9148 123.002 60.2758 122.949 60.4576C122.898 60.6327 122.758 60.9558 122.39 61.1529L115.696 64.7538C115.101 65.0728 114.325 64.8713 114.001 64.3158L112.3 61.3945C112.293 61.3814 112.285 61.3692 112.278 61.3563L94.6951 31.1583C94.4779 30.7867 94.5329 30.4303 94.5849 30.2509C94.6351 30.0773 94.7746 29.7566 95.1421 29.5593L101.845 25.9577C102.447 25.6338 103.204 25.8305 103.533 26.3971L107.452 33.1199C108.132 34.2868 109.658 34.6968 110.859 34.0368C112.061 33.3765 112.483 31.8951 111.803 30.7284L107.886 24.0086C106.216 21.1328 102.42 20.1013 99.4249 21.7091L92.7226 25.3107C91.2724 26.089 90.2246 27.3754 89.7726 28.9337C89.3461 30.4029 89.4986 31.9366 90.1969 33.2827L86.5049 34.3218C84.9321 34.7636 83.9776 35.0032 83.4479 35.0032C83.4456 35.0032 83.4436 35.0032 83.4416 35.0032C83.0769 35.002 82.6791 34.8668 81.5439 34.4492C81.0289 34.2599 80.3876 34.0239 79.5994 33.7569L73.0581 31.5363C69.4404 30.3094 67.8086 30.3754 65.4446 30.5849L54.2906 31.5543C49.2059 31.9917 45.9641 33.1055 44.1746 35.0372L37.8181 33.2488C38.5021 31.9085 38.6489 30.3895 38.2264 28.9337C37.7744 27.3764 36.7274 26.0902 35.2786 25.3119L28.5801 21.7086C25.5821 20.0994 21.7844 21.1313 20.1136 24.0064L0.812619 57.1488C-0.0136312 58.5614 -0.218131 60.2045 0.237369 61.7754C0.689869 63.3353 1.73737 64.6229 3.18487 65.4003L9.88337 69.0031C10.8411 69.5172 11.8816 69.7615 12.9084 69.7615C15.0896 69.7615 17.2101 68.6596 18.3499 66.7056L19.0576 65.4898C20.9891 66.3155 22.6109 67.5149 23.7161 68.9351C22.6366 70.1601 21.9566 71.6717 21.7659 73.316C21.5139 75.4904 22.1464 77.6238 23.5469 79.3243C24.9354 81.0103 26.9209 82.0741 29.1411 82.3246C28.9061 84.4805 29.5411 86.593 30.9309 88.2747C32.3674 90.0186 34.3976 91.0361 36.5214 91.2761C36.2874 93.4289 36.9201 95.5395 38.3056 97.2221C39.6934 98.9117 41.6794 99.9777 43.9019 100.228C43.6666 102.386 44.3016 104.5 45.6914 106.181C47.3479 108.192 49.7934 109.239 52.2621 109.239C54.1051 109.239 55.9611 108.656 57.5106 107.454L62.7451 103.387C63.1609 103.065 63.5386 102.708 63.8784 102.325L66.8684 104.644C68.4146 105.843 70.2664 106.425 72.1069 106.424C74.5769 106.424 77.0264 105.376 78.6851 103.363C79.5594 102.302 80.1129 101.09 80.3629 99.8398C81.2371 100.134 82.1601 100.285 83.1011 100.285C83.4166 100.285 83.7341 100.268 84.0526 100.234C86.2926 99.9922 88.2956 98.9226 89.6874 97.2277C91.0796 95.5434 91.7146 93.4311 91.4799 91.2754C93.6021 91.0348 95.6334 90.0177 97.0741 88.2744C98.5091 86.5321 99.0851 84.3871 98.8596 82.3241C101.079 82.0731 103.063 81.0095 104.448 79.3275C105.85 77.6315 106.485 75.5013 106.237 73.3286C106.048 71.6793 105.368 70.1625 104.286 68.9341C105.388 67.5145 107.007 66.3135 108.94 65.4884L109.649 66.7066C110.788 68.6598 112.907 69.7612 115.089 69.7612C116.116 69.761 117.158 69.5168 118.117 69.0021L124.811 65.401C126.258 64.6242 127.305 63.3385 127.76 61.7812C128.218 60.2117 128.017 58.5687 127.194 57.1522ZM13.9984 64.3146C13.6734 64.872 12.8966 65.073 12.3044 64.7548L5.60612 61.1522C5.24037 60.9556 5.10087 60.6336 5.04987 60.4591C4.99762 60.2782 4.94187 59.9192 5.16237 59.5429L24.4664 26.3939C24.6874 26.0135 25.1039 25.8004 25.5364 25.8004C25.7469 25.8004 25.9609 25.8506 26.1584 25.9567L32.8549 29.5588C32.8556 29.5593 32.8564 29.5598 32.8571 29.56C33.2236 29.7569 33.3629 30.0776 33.4134 30.2511C33.4654 30.4305 33.5204 30.7869 33.3006 31.1627L13.9984 64.3146ZM32.2419 76.8071C31.5369 77.3555 30.6466 77.6034 29.7369 77.505C28.8266 77.407 28.0154 76.9763 27.4519 76.2922C26.8871 75.6064 26.6326 74.7422 26.7349 73.859C26.8366 72.9795 27.2804 72.1956 27.9889 71.6482L37.3484 64.3833C38.8174 63.2445 40.9676 63.4788 42.1416 64.9026C42.7061 65.5879 42.9609 66.4507 42.8589 67.3312C42.7574 68.2088 42.3134 68.9919 41.6089 69.5362C41.5934 69.5481 41.5801 69.5614 41.5651 69.5738L32.2441 76.8054C32.2434 76.8059 32.2426 76.8066 32.2419 76.8071ZM34.8329 85.2392C34.2686 84.5563 34.0136 83.6957 34.1144 82.8159C34.2151 81.9354 34.6594 81.1479 35.3649 80.5986L35.3656 80.5981C35.3661 80.5978 35.3666 80.5973 35.3671 80.5971C35.3674 80.5971 35.3674 80.5969 35.3676 80.5966L48.8491 70.1375C50.3179 68.9985 52.4686 69.231 53.6424 70.6568C54.2061 71.3411 54.4609 72.2029 54.3601 73.0832C54.2591 73.9644 53.8136 74.7519 53.1064 75.3005L39.6284 85.7558C38.1579 86.8953 36.0079 86.6654 34.8329 85.2392ZM44.4974 95.4084C43.5874 95.3103 42.7769 94.8792 42.2126 94.1922C41.6489 93.5079 41.3941 92.646 41.4949 91.7658C41.5959 90.8853 42.0406 90.0985 42.7469 89.5499C42.7474 89.5494 42.7481 89.5489 42.7486 89.5484L52.0781 82.3112C52.0891 82.303 52.1011 82.2959 52.1121 82.2874C53.5771 81.1486 55.7271 81.3805 56.9021 82.8026C57.4669 83.4881 57.7216 84.3524 57.6194 85.2355C57.5174 86.1151 57.0736 86.8989 56.3654 87.4464L47.0061 94.711C46.2989 95.2594 45.4076 95.506 44.4974 95.4084ZM60.8769 97.3792C60.7756 98.2597 60.3314 99.0455 59.6239 99.5941L54.3891 103.662C52.9184 104.802 50.7684 104.572 49.5939 103.146C49.0296 102.464 48.7744 101.602 48.8751 100.721C48.9759 99.8393 49.4196 99.053 50.1239 98.5068C50.1246 98.5063 50.1256 98.5056 50.1264 98.5051L55.3599 94.4427C55.3626 94.4405 55.3656 94.4388 55.3684 94.4369C56.8376 93.2983 58.9879 93.5316 60.1619 94.9562C60.7241 95.6393 60.9784 96.4994 60.8769 97.3792ZM100.546 76.292C99.9829 76.9761 99.1714 77.407 98.2614 77.505C97.3521 77.6043 96.4614 77.3558 95.7564 76.8071C95.7561 76.8069 95.7556 76.8066 95.7551 76.8064C95.7549 76.8061 95.7544 76.8059 95.7541 76.8057L89.0646 71.6157C87.9856 70.7786 86.4126 70.9495 85.5511 71.9968C84.6894 73.0441 84.8651 74.5718 85.9436 75.4086L92.6309 80.5968C94.0979 81.7376 94.3396 83.8214 93.1721 85.2389C91.9941 86.6644 89.8439 86.8963 88.3759 85.7545L81.1196 80.1317C80.0406 79.2957 78.4676 79.4673 77.6064 80.515C76.7454 81.5628 76.9219 83.0902 78.0011 83.9266L85.2539 89.5467C85.9606 90.0963 86.4054 90.8843 86.5064 91.7658C86.6071 92.6456 86.3521 93.5064 85.7831 94.1946C85.2209 94.8792 84.4104 95.3101 83.5006 95.4084C82.5899 95.5058 81.6986 95.2589 80.9941 94.7129L77.3836 91.909C77.3774 91.9042 77.3719 91.8991 77.3656 91.8942L74.3151 89.5261L73.7449 89.0833C72.6661 88.2458 71.0931 88.4159 70.2311 89.4627C70.1234 89.5938 70.0316 89.7322 69.9561 89.8759C69.5941 90.5629 69.6001 91.3686 69.9399 92.0442C70.0971 92.3572 70.3236 92.6429 70.6221 92.8747L74.2524 95.6939C75.7096 96.8366 75.9479 98.9134 74.7811 100.33C73.6069 101.755 71.4564 101.988 69.9881 100.851L65.8694 97.6554C66.0409 95.5776 65.4069 93.5513 64.0659 91.9231C63.2324 90.9115 62.1986 90.1454 61.0634 89.6314C61.8954 88.5106 62.4236 87.1939 62.5876 85.7781C62.8396 83.6039 62.2071 81.4705 60.8041 79.7671C59.9704 78.7582 58.9379 77.9937 57.8049 77.481C58.6384 76.3568 59.1666 75.0374 59.3291 73.6197C59.5779 71.4503 58.9449 69.3211 57.5469 67.6235C55.1414 64.7031 51.0734 63.8153 47.6876 65.2107C47.4166 64.0022 46.8629 62.8622 46.0454 61.8695C43.1509 58.3573 37.8504 57.7827 34.2276 60.5895L27.5336 65.7853C26.0199 63.9095 23.9621 62.3539 21.5291 61.2444L35.2989 37.5944L42.6304 39.6572C42.6639 40.0381 42.7274 40.4386 42.8336 40.863C44.6084 47.9487 51.3269 51.2502 60.3676 49.4812C67.9851 47.9928 71.1211 50.21 77.3669 54.6265C78.0149 55.0846 78.6881 55.5607 79.3929 56.0508C83.8846 59.18 88.6846 62.8581 91.9029 65.351L100.018 71.6487C100.723 72.1949 101.167 72.9814 101.267 73.8636C101.368 74.7451 101.113 75.6064 100.546 76.292ZM100.469 65.7838L95.0229 61.5576C91.7601 59.0302 86.8924 55.3007 82.3061 52.1055C81.6111 51.6221 80.9484 51.1533 80.3104 50.7023C73.8339 46.1226 69.1531 42.8138 59.3811 44.7221C56.3901 45.3074 49.2641 45.9918 47.6924 39.7169C47.4709 38.831 47.6959 38.5266 47.7916 38.3967C48.1259 37.9442 49.4709 36.8428 54.7331 36.3903L65.8989 35.42C67.7184 35.2588 68.6311 35.1777 71.4081 36.1196L77.9501 38.3404C78.6774 38.5871 79.2589 38.8007 79.7721 38.9896C82.9221 40.1483 83.7569 40.148 87.8951 38.985L92.7181 37.6279L106.469 61.2459C104.036 62.3546 101.98 63.909 100.469 65.7838Z" fill="#0E121B" fill-opacity="0.5"/>
<path d="M115.143 43.8409C116.523 43.8409 117.643 42.7504 117.643 41.4097C117.643 40.0689 116.523 38.9821 115.143 38.9821C113.762 38.9821 112.643 40.0691 112.643 41.4097V41.4165C112.643 42.7572 113.762 43.8409 115.143 43.8409Z" fill="#0E121B" fill-opacity="0.5"/>
</svg>
