<svg width="87" height="74" viewBox="0 0 87 74" fill="none" xmlns="http://www.w3.org/2000/svg">
<path d="M43.6634 11.9952C44.5134 11.9952 45.2027 11.2665 45.2027 10.3678V2.07763C45.2027 1.17896 44.5135 0.450195 43.6634 0.450195C42.8132 0.450195 42.124 1.1788 42.124 2.07763V10.3678C42.1242 11.2665 42.8133 11.9952 43.6634 11.9952Z" fill="#D14F59"/>
<path d="M31.0767 14.3237C31.4217 14.8084 32.0111 15.0738 32.6139 15.0738C32.9446 15.0738 33.2795 14.9938 33.5799 14.8262C34.4279 14.3533 34.682 13.3612 34.1476 12.6104L29.3115 5.81832C28.777 5.0677 27.6562 4.84261 26.8084 5.31576C25.9604 5.78876 25.7063 6.78085 26.2406 7.53164L31.0767 14.3237Z" fill="#D14F59"/>
<path d="M53.7472 14.8267C54.0477 14.994 54.3824 15.0738 54.713 15.0738C55.3163 15.0738 55.9064 14.8081 56.2516 14.323L61.0854 7.5309C61.6197 6.77995 61.3649 5.78816 60.516 5.31516C59.6668 4.84264 58.5461 5.06822 58.0116 5.81885L53.1778 12.611C52.6435 13.3621 52.8985 14.3539 53.7472 14.8267Z" fill="#D14F59"/>
<path d="M86.2218 38.6055L83.2964 33.6037C82.8381 32.8202 81.8108 32.5448 81.0021 32.9884C80.1928 33.4318 79.9082 34.426 80.3664 35.2089L83.2904 40.2087C83.4368 40.4599 83.3988 40.7022 83.3631 40.8243C83.3287 40.9418 83.2341 41.1587 82.9866 41.291L78.4781 43.7081C78.0776 43.9222 77.5548 43.7869 77.3365 43.4141L76.1911 41.4531C76.1864 41.4443 76.181 41.4362 76.1761 41.4275L64.335 21.1572C64.1887 20.9077 64.2257 20.6685 64.2607 20.5481C64.2946 20.4316 64.3885 20.2163 64.636 20.0838L69.1499 17.6663C69.5555 17.4489 70.0654 17.5809 70.2872 17.9612L72.9261 22.4739C73.3843 23.2572 74.4118 23.5324 75.2206 23.0893C76.0299 22.6461 76.3145 21.6518 75.8565 20.8686L73.2188 16.3579C72.0937 14.4276 69.5376 13.7352 67.5203 14.8144L63.0066 17.232C62.0299 17.7544 61.3243 18.6179 61.0199 19.6639C60.7326 20.6501 60.8353 21.6796 61.3056 22.5832L58.8192 23.2806C57.76 23.5772 57.1171 23.7381 56.7604 23.7381C56.7589 23.7381 56.7575 23.7381 56.7562 23.7381C56.5105 23.7372 56.2427 23.6465 55.4781 23.3662C55.1313 23.2391 54.6994 23.0807 54.1686 22.9015L49.7633 21.4109C47.3269 20.5874 46.228 20.6317 44.6359 20.7723L37.1241 21.423C33.6997 21.7166 31.5165 22.4643 30.3114 23.7609L26.0305 22.5604C26.4912 21.6607 26.59 20.6411 26.3055 19.6639C26.0011 18.6186 25.296 17.7552 24.3203 17.2328L19.8091 14.8141C17.7901 13.7339 15.2324 14.4266 14.1073 16.3565L1.10879 38.6032C0.552343 39.5515 0.414621 40.6543 0.721382 41.7088C1.02612 42.7559 1.73157 43.6202 2.70641 44.142L7.21758 46.5604C7.86259 46.9055 8.56333 47.0694 9.2548 47.0694C10.7238 47.0694 12.1519 46.3298 12.9194 45.0182L13.3961 44.2021C14.6969 44.7563 15.7891 45.5615 16.5334 46.5148C15.8064 47.337 15.3484 48.3517 15.22 49.4554C15.0503 50.915 15.4762 52.347 16.4194 53.4885C17.3545 54.6202 18.6917 55.3342 20.1869 55.5024C20.0287 56.9496 20.4563 58.3676 21.3922 59.4964C22.3597 60.667 23.727 61.35 25.1572 61.5111C24.9996 62.9562 25.4258 64.3729 26.3589 65.5023C27.2934 66.6365 28.6309 67.352 30.1277 67.5202C29.9693 68.9685 30.3969 70.3873 31.3329 71.5162C32.4485 72.8661 34.0954 73.569 35.758 73.5688C36.9992 73.5688 38.2491 73.1771 39.2927 72.3704L42.8179 69.6403C43.0979 69.4241 43.3523 69.185 43.5811 68.9276L45.5947 70.4844C46.6361 71.2888 47.8832 71.6795 49.1227 71.6794C50.7861 71.6792 52.4358 70.9756 53.5529 69.6244C54.1416 68.9119 54.5144 68.0988 54.6828 67.2594C55.2715 67.4566 55.8931 67.5585 56.5269 67.5583C56.7393 67.5583 56.9532 67.5469 57.1677 67.5239C58.6762 67.3618 60.0252 66.6438 60.9624 65.5061C61.9001 64.3755 62.3277 62.9576 62.1696 61.5106C63.5989 61.3491 64.9668 60.6664 65.9371 59.4962C66.9035 58.3267 67.2915 56.8869 67.1396 55.5021C68.634 55.3336 69.9705 54.6197 70.9034 53.4906C71.8473 52.3522 72.2751 50.9223 72.1079 49.4639C71.9809 48.3568 71.5226 47.3386 70.7943 46.5141C71.5364 45.5612 72.6264 44.755 73.9281 44.2012L74.4057 45.0189C75.1728 46.33 76.6002 47.0693 78.0695 47.0693C78.7613 47.0691 79.4627 46.9052 80.1084 46.5597L84.6171 44.1425C85.5916 43.621 86.2967 42.758 86.6026 41.7127C86.911 40.6592 86.7762 39.5564 86.2218 38.6055ZM9.98887 43.4133C9.77 43.7874 9.24689 43.9223 8.84803 43.7087L4.33702 41.2905C4.09071 41.1585 3.99676 40.9424 3.96241 40.8253C3.92722 40.7039 3.88968 40.4629 4.03818 40.2103L17.0387 17.9591C17.1875 17.7038 17.468 17.5607 17.7593 17.5607C17.901 17.5607 18.0451 17.5944 18.1782 17.6656L22.688 20.0835C22.6885 20.0838 22.689 20.0842 22.6895 20.0843C22.9363 20.2165 23.0301 20.4317 23.0641 20.5483C23.0991 20.6687 23.1362 20.9079 22.9882 21.1601L9.98887 43.4133ZM22.2752 51.7988C21.8004 52.1669 21.2008 52.3333 20.5881 52.2673C19.9751 52.2015 19.4288 51.9124 19.0493 51.4532C18.6689 50.9929 18.4975 50.4127 18.5664 49.8199C18.6349 49.2295 18.9338 48.7034 19.4109 48.3359L25.7142 43.4594C26.7035 42.695 28.1516 42.8522 28.9422 43.8079C29.3224 44.268 29.494 44.8471 29.4253 45.4381C29.3569 46.0272 29.0579 46.5529 28.5835 46.9182C28.573 46.9262 28.5641 46.9352 28.554 46.9435L22.2767 51.7977C22.2762 51.798 22.2757 51.7985 22.2752 51.7988ZM24.0201 57.4588C23.6401 57.0004 23.4684 56.4228 23.5362 55.8322C23.6041 55.2412 23.9032 54.7126 24.3784 54.3438L24.3789 54.3435C24.3792 54.3433 24.3796 54.343 24.3799 54.3428C24.3801 54.3428 24.3801 54.3427 24.3802 54.3425L33.4595 47.3219C34.4486 46.5573 35.8971 46.7134 36.6875 47.6704C37.0672 48.1298 37.2388 48.7083 37.1709 49.2991C37.1029 49.8906 36.8029 50.4193 36.3266 50.7875L27.2497 57.8056C26.2593 58.5705 24.8114 58.4162 24.0201 57.4588ZM30.5287 64.2849C29.9159 64.2191 29.3701 63.9297 28.9901 63.4685C28.6104 63.0091 28.4388 62.4307 28.5067 61.8398C28.5747 61.2488 28.8742 60.7206 29.3499 60.3524C29.3502 60.352 29.3507 60.3517 29.351 60.3514L35.6341 55.4934C35.6415 55.4879 35.6496 55.4832 35.657 55.4775C36.6436 54.7131 38.0915 54.8687 38.8829 55.8233C39.2632 56.2834 39.4348 56.8635 39.3659 57.4564C39.2972 58.0467 38.9984 58.5729 38.5214 58.9404L32.2183 63.8167C31.742 64.1848 31.1418 64.3504 30.5287 64.2849ZM41.5597 65.6077C41.4915 66.1988 41.1923 66.7263 40.7159 67.0945L37.1905 69.8251C36.2 70.5902 34.752 70.4362 33.961 69.4787C33.581 69.0206 33.4091 68.4425 33.477 67.8508C33.5448 67.2591 33.8437 66.7313 34.318 66.3647C34.3185 66.3643 34.3192 66.3638 34.3197 66.3635L37.8442 63.6367C37.8461 63.6352 37.8481 63.6341 37.8499 63.6328C38.8394 62.8685 40.2875 63.0251 41.0782 63.9813C41.4568 64.4399 41.6281 65.0172 41.5597 65.6077ZM68.2756 51.453C67.8961 51.9122 67.3495 52.2015 66.7367 52.2673C66.1244 52.334 65.5245 52.1671 65.0497 51.7988C65.0495 51.7987 65.0492 51.7985 65.0488 51.7983C65.0487 51.7982 65.0483 51.798 65.0482 51.7978L60.543 48.3141C59.8164 47.7522 58.757 47.8669 58.1768 48.5699C57.5965 49.2729 57.7148 50.2984 58.4412 50.8601L62.9448 54.3427C63.9327 55.1084 64.0955 56.5072 63.3093 57.4587C62.5159 58.4155 61.0678 58.5711 60.0792 57.8048L55.1924 54.0305C54.4657 53.4692 53.4064 53.5845 52.8264 54.2878C52.2465 54.9911 52.3654 56.0164 53.0922 56.5777L57.9767 60.3502C58.4526 60.7192 58.7521 61.2481 58.8202 61.8398C58.888 62.4303 58.7163 63.0082 58.3331 63.4701C57.9544 63.9297 57.4086 64.2189 56.7959 64.2849C56.1826 64.3502 55.5823 64.1845 55.1079 63.818L52.6763 61.9359C52.6721 61.9327 52.6684 61.9293 52.6642 61.926L50.6098 60.3364L50.2258 60.0392C49.4993 59.477 48.4399 59.5912 47.8594 60.2939C47.7869 60.3819 47.7251 60.4747 47.6742 60.5712C47.4304 61.0324 47.4345 61.5732 47.6633 62.0267C47.7692 62.2367 47.9217 62.4285 48.1227 62.5842L50.5676 64.4765C51.549 65.2436 51.7094 66.6376 50.9237 67.5884C50.1329 68.5451 48.6846 68.7014 47.6958 67.938L44.922 65.7932C45.0375 64.3985 44.6105 63.0383 43.7074 61.9454C43.146 61.2664 42.4498 60.7521 41.6853 60.4071C42.2456 59.6548 42.6014 58.7709 42.7118 57.8206C42.8815 56.3612 42.4556 54.9291 41.5107 53.7857C40.9492 53.1085 40.2539 52.5953 39.4908 52.2512C40.0522 51.4965 40.4079 50.6109 40.5173 49.6592C40.6849 48.2031 40.2586 46.7738 39.3171 45.6343C37.6971 43.674 34.9574 43.0781 32.6773 44.0147C32.4948 43.2036 32.1218 42.4383 31.5713 41.772C29.6219 39.4144 26.0523 39.0287 23.6125 40.9128L19.1043 44.4004C18.0849 43.1413 16.6991 42.0971 15.0605 41.3524L24.3339 25.4774L29.2714 26.862C29.294 27.1177 29.3367 27.3866 29.4083 27.6714C30.6035 32.4277 35.1282 34.6438 41.2167 33.4564C46.3468 32.4573 48.4588 33.9456 52.6651 36.9102C53.1015 37.2177 53.5549 37.5372 54.0295 37.8662C57.0545 39.9667 60.2871 42.4356 62.4545 44.1089L67.9196 48.3362C68.3944 48.7029 68.6933 49.2308 68.7611 49.823C68.829 50.4147 68.6572 50.9929 68.2756 51.453ZM68.2232 44.3995L64.5557 41.5626C62.3584 39.8661 59.0801 37.3627 55.9915 35.2179C55.5234 34.8935 55.0771 34.5788 54.6474 34.276C50.2857 31.2019 47.1334 28.9809 40.5524 30.2619C38.5381 30.6547 33.739 31.1141 32.6805 26.9021C32.5313 26.3075 32.6828 26.1031 32.7473 26.016C32.9724 25.7122 33.8782 24.9729 37.4221 24.6692L44.9418 24.0178C46.1672 23.9096 46.7819 23.8552 48.6521 24.4875L53.0579 25.9782C53.5476 26.1437 53.9393 26.2871 54.2849 26.4139C56.4063 27.1917 56.9685 27.1915 59.7554 26.4108L63.0035 25.4999L72.2645 41.3534C70.6254 42.0976 69.241 43.141 68.2232 44.3995Z" fill="#D14F59"/>
<path d="M78.2981 29.6978C79.1482 29.6978 79.8375 29.0069 79.8375 28.1573C79.8375 27.3078 79.1482 26.6191 78.2981 26.6191C77.4481 26.6191 76.7588 27.3079 76.7588 28.1573V28.1616C76.7588 29.0112 77.4481 29.6978 78.2981 29.6978Z" fill="#D14F59"/>
</svg>
