<svg width="61" height="66" viewBox="0 0 61 66" fill="none" xmlns="http://www.w3.org/2000/svg">
<path d="M3.60269 65.5959C2.1539 65.5959 0.979492 64.4606 0.979492 63.06C0.979492 50.336 11.688 39.9841 24.8506 39.9841H28.7854C31.479 39.9841 34.124 40.4152 36.6467 41.2653C38.0147 41.7263 38.7372 43.1723 38.2601 44.4946C37.7832 45.817 36.2875 46.5154 34.9196 46.0542C32.9534 45.3917 30.8896 45.0557 28.7854 45.0557H24.8506C14.5809 45.0557 6.22589 53.1325 6.22589 63.06C6.22589 64.4606 5.05149 65.5959 3.60269 65.5959ZM44.2623 17.7957C44.2623 8.35753 36.3191 0.678955 26.5557 0.678955C16.7923 0.678955 8.84909 8.35753 8.84909 17.7957C8.84909 27.2339 16.7923 34.9125 26.5557 34.9125C36.3191 34.9125 44.2623 27.2339 44.2623 17.7957ZM39.0159 17.7957C39.0159 24.4374 33.4262 29.8408 26.5557 29.8408C19.6851 29.8408 14.0955 24.4374 14.0955 17.7957C14.0955 11.154 19.6851 5.75059 26.5557 5.75059C33.4262 5.75059 39.0159 11.154 39.0159 17.7957ZM57.7718 50.381H49.9022V42.7735C49.9022 41.373 48.7278 40.2377 47.279 40.2377C45.8302 40.2377 44.6558 41.373 44.6558 42.7735V50.381H36.7862C35.3374 50.381 34.163 51.5163 34.163 52.9168C34.163 54.3173 35.3374 55.4526 36.7862 55.4526H44.6558V63.06C44.6558 64.4606 45.8302 65.5959 47.279 65.5959C48.7278 65.5959 49.9022 64.4606 49.9022 63.06V55.4526H57.7718C59.2206 55.4526 60.395 54.3173 60.395 52.9168C60.395 51.5163 59.2206 50.381 57.7718 50.381Z" fill="#D14F59"/>
</svg>
