<svg width="70" height="68" viewBox="0 0 70 68" fill="none" xmlns="http://www.w3.org/2000/svg">
<path d="M40.1463 56.3178C39.9042 56.3178 39.7592 56.2317 39.6694 56.1301C39.5713 56.0192 39.5113 55.8566 39.5114 55.6772C39.5115 55.4978 39.5717 55.335 39.67 55.2238C39.7601 55.122 39.905 55.036 40.1463 55.036C40.3885 55.036 40.5334 55.1222 40.6232 55.2237C40.7213 55.3347 40.7813 55.4972 40.7812 55.6767C40.7811 55.8561 40.7209 56.0189 40.6226 56.1301C40.5325 56.2319 40.3876 56.3178 40.1463 56.3178Z" fill="#D14F59" stroke="#D14F59" stroke-width="1.00032"/>
<path d="M49.9805 5.57116L49.9805 5.57116C51.2478 5.39307 52.5452 5.81013 53.4544 6.6924L57.3327 10.4555L67.0812 0.996455C67.6258 0.467671 68.5042 0.467998 69.0488 0.996537C69.6 1.53157 69.6002 2.40448 69.0483 2.93945L49.9805 5.57116ZM49.9805 5.57116L33.8979 7.83241L33.9536 8.22851L49.9805 5.57116ZM59.3175 12.3815L69.0481 2.93965L59.3175 12.3815ZM59.3175 12.3815L63.1783 16.1275L62.8998 16.4146L63.1784 16.1276C64.0885 17.0107 64.5242 18.2779 64.3387 19.5205L62.0083 35.1253L62.0083 35.1254C61.8816 35.973 61.4692 36.7699 60.8479 37.3727L55.7546 42.3148V45.2566C57.0995 45.2559 58.4464 45.2539 59.7934 45.2519C61.4413 45.2494 63.0896 45.2469 64.7353 45.2469C67.1789 45.2469 69.0052 47.5728 68.3766 49.8773C68.3765 49.8777 68.3764 49.8782 68.3763 49.8786L64.7221 63.7263C64.7221 63.7263 64.722 63.7264 64.722 63.7264C64.2907 65.3631 62.7756 66.4901 61.0553 66.484C61.0552 66.484 61.0552 66.484 61.0552 66.484L61.0566 66.084C60.629 66.0826 60.1887 66.0817 59.7387 66.0812L59.3175 12.3815ZM49.5177 19.9473L49.5176 19.9473C48.7149 19.1685 48.715 17.8693 49.5177 17.0904L49.5177 17.0904C49.9158 16.704 50.5152 16.4946 51.0958 16.5072L50.8949 16.7022C50.8949 16.7022 50.8949 16.7022 50.8948 16.7023C50.3432 17.2373 50.3433 18.1101 50.8947 18.6452L50.9081 18.6581L50.9226 18.6698C51.2083 18.8995 51.529 19.0416 51.8784 19.0417C52.2278 19.0417 52.5486 18.8997 52.8343 18.67L52.8488 18.6583L52.8621 18.6453L53.1054 18.4094C53.1074 18.4457 53.1085 18.4822 53.1085 18.5189C53.1085 19.0534 52.8963 19.5566 52.5052 19.9398C51.6455 20.681 50.3261 20.7319 49.5177 19.9473ZM42.8798 61.7302C42.8798 61.9506 42.6908 62.1509 42.4342 62.1509H36.3111C36.0544 62.1509 35.8656 61.9506 35.8656 61.7302V49.7559C35.8656 49.5355 36.0545 49.3352 36.3111 49.3352H42.4342C42.6909 49.3352 42.8798 49.5355 42.8798 49.7559V61.6762V61.7302Z" fill="#D14F59" stroke="#D14F59" stroke-width="0.8"/>
<path d="M37.3671 21.8616L37.3672 21.8615C37.5663 21.6681 37.8955 21.668 38.095 21.8617C38.286 22.0471 38.2859 22.3414 38.0949 22.5267L38.0947 22.5268L17.2001 42.8066L17.2001 42.8067C17.0708 42.9322 16.9484 42.961 16.8438 42.9535C16.7267 42.945 16.5983 42.8871 16.4939 42.7857C16.3891 42.6839 16.3349 42.5647 16.3272 42.4634C16.3206 42.3769 16.3436 42.2663 16.4724 42.1414L16.4724 42.1413L37.3671 21.8616Z" fill="#D14F59" stroke="#D14F59"/>
<path d="M37.3319 32.6503L36.9854 32.2899L37.3319 32.6503C37.561 32.43 37.8479 32.4619 38.0658 32.6715C38.1734 32.775 38.2284 32.8957 38.2363 32.9974C38.2429 33.0839 38.2199 33.1958 38.0877 33.3229L38.0877 33.3229L22.6215 48.1938L22.6215 48.1939C22.3925 48.4142 22.1057 48.3822 21.8878 48.1727C21.7802 48.0692 21.7252 47.9485 21.7173 47.8468C21.7107 47.7603 21.7337 47.6483 21.8659 47.5212L21.8659 47.5212L37.3319 32.6503Z" fill="#D14F59" stroke="#D14F59"/>
</svg>
