<svg width="70" height="68" viewBox="0 0 70 68" fill="none" xmlns="http://www.w3.org/2000/svg">
<path d="M17.6831 11.903C18.4315 11.903 19.0381 11.3187 19.0381 10.5979C19.0381 9.87706 18.4315 9.29272 17.6831 9.29272C16.9348 9.29272 16.3281 9.87706 16.3281 10.5979C16.3281 11.3187 16.9348 11.903 17.6831 11.903Z" fill="#D14F59"/>
<path d="M12.2642 11.903C13.0125 11.903 13.6192 11.3187 13.6192 10.5979C13.6192 9.87706 13.0125 9.29272 12.2642 9.29272C11.5158 9.29272 10.9092 9.87706 10.9092 10.5979C10.9092 11.3187 11.5158 11.903 12.2642 11.903Z" fill="#D14F59"/>
<path d="M6.84327 11.903C7.59161 11.903 8.19826 11.3187 8.19826 10.5979C8.19826 9.87706 7.59161 9.29272 6.84327 9.29272C6.09493 9.29272 5.48828 9.87706 5.48828 10.5979C5.48828 11.3187 6.09493 11.903 6.84327 11.903Z" fill="#D14F59"/>
<path d="M6.84327 20.5173H27.4391C28.1875 20.5173 28.7941 19.9328 28.7941 19.2121C28.7941 18.4914 28.1875 17.907 27.4391 17.907H6.84327C6.09491 17.907 5.48828 18.4914 5.48828 19.2121C5.48828 19.9328 6.09491 20.5173 6.84327 20.5173Z" fill="#D14F59"/>
<path d="M6.84327 25.7377H27.4391C28.1875 25.7377 28.7941 25.1533 28.7941 24.4326C28.7941 23.7119 28.1875 23.1274 27.4391 23.1274H6.84327C6.09491 23.1274 5.48828 23.7119 5.48828 24.4326C5.48828 25.1533 6.09491 25.7377 6.84327 25.7377Z" fill="#D14F59"/>
<path d="M6.84327 38.789H27.4391C28.1875 38.789 28.7941 38.2046 28.7941 37.4839C28.7941 36.7632 28.1875 36.1787 27.4391 36.1787H6.84327C6.09491 36.1787 5.48828 36.7632 5.48828 37.4839C5.48828 38.2046 6.09491 38.789 6.84327 38.789Z" fill="#D14F59"/>
<path d="M6.84327 44.0095H27.4391C28.1875 44.0095 28.7941 43.425 28.7941 42.7043C28.7941 41.9836 28.1875 41.3992 27.4391 41.3992H6.84327C6.09491 41.3992 5.48828 41.9836 5.48828 42.7043C5.48828 43.425 6.09491 44.0095 6.84327 44.0095Z" fill="#D14F59"/>
<path d="M53.1839 46.3037V1.9841C53.1839 1.2634 52.5772 0.678955 51.8289 0.678955H1.42335C0.674988 0.678955 0.0683594 1.2634 0.0683594 1.9841V66.1971C0.0683594 66.9178 0.674988 67.5023 1.42335 67.5023H20.5287C21.2771 67.5023 21.8837 66.9178 21.8837 66.1971C21.8837 65.4764 21.2771 64.892 20.5287 64.892H2.77834V3.28924H50.4739V43.6935L47.943 41.2556C47.803 41.1208 47.6335 41.0187 47.4477 40.9536C47.6562 40.2556 47.764 39.5321 47.764 38.7891C47.764 34.4712 44.1169 30.9583 39.634 30.9583C35.1512 30.9583 31.5041 34.4712 31.5041 38.7891C31.5041 43.1071 35.1512 46.62 39.634 46.62C40.4054 46.62 41.1565 46.5162 41.8812 46.3155C41.9488 46.4944 42.0547 46.6576 42.1947 46.7925L50.4739 54.7671V64.892H32.7236C31.9752 64.892 31.3686 65.4764 31.3686 66.1971C31.3686 66.9178 31.9752 67.5023 32.7236 67.5023H51.8289C52.5772 67.5023 53.1839 66.9178 53.1839 66.1971V57.3774L63.2986 67.12C63.828 67.6298 64.6856 67.6295 65.215 67.12L69.0469 63.429C69.576 62.9194 69.576 62.093 69.0469 61.5832L53.1839 46.3037ZM41.6656 39.095C41.179 38.9387 40.642 39.0605 40.279 39.4101C39.916 39.7596 39.7893 40.2767 39.9515 40.7457L41.021 43.8361C40.5725 43.9502 40.1094 44.0097 39.634 44.0097C36.6455 44.0097 34.2141 41.6677 34.2141 38.7891C34.2141 35.9105 36.6455 33.5686 39.634 33.5686C42.6226 33.5686 45.054 35.9105 45.054 38.7891C45.054 39.2468 44.9922 39.6931 44.8738 40.1251L41.6656 39.095ZM43.3791 42.3969L46.2532 43.3193C47.9488 44.9525 58.9757 55.5739 60.4234 56.9683L58.5077 58.8137L44.3369 45.1642L43.3791 42.3969ZM64.2569 64.3514L60.424 60.6595L62.3397 58.8143L66.1726 62.5062L64.2569 64.3514Z" fill="#D14F59"/>
<path d="M47.1604 12.9054C46.5378 12.5056 45.6965 12.6675 45.2814 13.2673L44.5702 14.295C43.1662 13.2595 41.4385 12.6861 39.6338 12.6861C35.151 12.6861 31.5039 16.199 31.5039 20.517C31.5039 24.8349 35.151 28.3478 39.6338 28.3478C44.1167 28.3478 47.7638 24.8349 47.7638 20.517C47.7638 19.0043 47.3061 17.5277 46.4612 16.2683L47.5361 14.7152C47.9513 14.1155 47.7831 13.3052 47.1604 12.9054ZM39.6338 25.7375C36.6453 25.7375 34.2139 23.3956 34.2139 20.517C34.2139 17.6384 36.6453 15.2964 39.6338 15.2964C40.8964 15.2964 42.1014 15.7186 43.061 16.4753L40.7781 19.7736L39.237 18.289C38.7077 17.7794 37.85 17.7794 37.3206 18.289C36.7915 18.7986 36.7915 19.625 37.3206 20.1348L40.0306 22.7451C40.6354 23.3277 41.6422 23.2309 42.1162 22.5462L44.7362 18.7608C44.9442 19.3206 45.0537 19.9145 45.0537 20.5172C45.0538 23.3956 42.6224 25.7375 39.6338 25.7375Z" fill="#D14F59"/>
<path d="M6.84327 54.4506H43.699C44.4472 54.4506 45.054 53.8662 45.054 53.1455C45.054 52.4248 44.4472 51.8403 43.699 51.8403H6.84327C6.09491 51.8403 5.48828 52.4248 5.48828 53.1455C5.48828 53.8662 6.09491 54.4506 6.84327 54.4506Z" fill="#D14F59"/>
<path d="M6.84327 59.6713H46.409C47.1572 59.6713 47.7639 59.0869 47.7639 58.3662C47.7639 57.6455 47.1572 57.061 46.409 57.061H6.84327C6.09491 57.061 5.48828 57.6455 5.48828 58.3662C5.48828 59.0869 6.09491 59.6713 6.84327 59.6713Z" fill="#D14F59"/>
<path d="M26.6255 67.5021C27.3738 67.5021 27.9805 66.9178 27.9805 66.197C27.9805 65.4762 27.3738 64.8918 26.6255 64.8918C25.8772 64.8918 25.2705 65.4762 25.2705 66.197C25.2705 66.9178 25.8772 67.5021 26.6255 67.5021Z" fill="#D14F59"/>
</svg>
